<svg version="1.1" xmlns="http://www.w3.org/2000/svg" width="1024" height="1024">
<path d="M0 0 C337.92 0 675.84 0 1024 0 C1024 337.92 1024 675.84 1024 1024 C686.08 1024 348.16 1024 0 1024 C0 686.08 0 348.16 0 0 Z " fill="#FEFEFE" transform="translate(0,0)"/>
<path d="M0 0 C5.439 1.968 10.763 0.815 16.129 -0.82 C26.795 -3.891 35.558 -2.971 45.582 1.785 C57.738 8.771 65.73 19.829 69.945 33.016 C71.451 39.145 71.09 45.411 71.004 51.68 C70.995 52.931 70.986 54.183 70.977 55.473 C70.953 58.542 70.92 61.611 70.879 64.68 C68.569 64.68 66.259 64.68 63.879 64.68 C63.87 63.985 63.86 63.291 63.851 62.575 C63.999 44.613 63.999 44.613 58.879 27.68 C58.444 26.795 58.01 25.911 57.562 25 C52.474 15.655 45.807 10.335 35.898 6.559 C29.746 4.768 24.542 4.92 18.566 7.18 C10.383 10.221 1.998 9.414 -6.016 6.363 C-12.435 4.279 -18.533 5.544 -24.57 8.238 C-34.896 14.073 -40.43 22.608 -44.121 33.68 C-44.344 35.739 -44.528 37.802 -44.684 39.867 C-44.767 40.954 -44.851 42.041 -44.938 43.16 C-44.998 43.992 -45.059 44.823 -45.121 45.68 C-44.518 45.809 -43.915 45.938 -43.293 46.07 C-40.17 46.946 -38.401 48.4 -36.121 50.68 C-35.996 53.242 -35.996 53.242 -36.121 55.68 C-35.626 56.113 -35.131 56.546 -34.621 56.992 C-32.564 59.307 -32.594 61.398 -32.684 64.414 C-33.371 67.972 -35.119 70.754 -37.027 73.797 C-38.289 75.605 -38.289 75.605 -38.121 77.68 C-34.821 79.33 -31.521 80.98 -28.121 82.68 C-28.121 83.67 -28.121 84.66 -28.121 85.68 C-33.402 85.164 -36.693 83.425 -41.121 80.68 C-41.245 81.396 -41.368 82.113 -41.496 82.851 C-42.128 85.712 -43.024 88.221 -44.125 90.934 C-44.532 91.943 -44.939 92.953 -45.358 93.994 C-45.796 95.066 -46.233 96.138 -46.684 97.242 C-47.597 99.495 -48.509 101.747 -49.422 104 C-50.106 105.685 -50.106 105.685 -50.803 107.403 C-52.009 110.401 -53.188 113.408 -54.352 116.422 C-63.815 140.862 -63.815 140.862 -75.246 147.492 C-81.231 149.778 -87.939 149.737 -93.977 147.73 C-98.671 145.533 -102.506 143.316 -105.121 138.68 C-105.121 137.36 -105.121 136.04 -105.121 134.68 C-101.849 135.771 -99.629 137.081 -97.059 139.305 C-92.185 142.89 -86.905 142.481 -81.121 141.68 C-74.972 140.119 -72.04 136.708 -68.7 131.523 C-65.561 125.871 -63.425 119.789 -61.184 113.742 C-60.661 112.355 -60.137 110.969 -59.612 109.583 C-58.833 107.522 -58.054 105.461 -57.281 103.399 C-55.826 99.522 -54.335 95.665 -52.789 91.824 C-52.293 90.588 -52.293 90.588 -51.787 89.326 C-51.197 87.863 -50.602 86.403 -50 84.946 C-48.592 81.414 -47.569 78.488 -48.121 74.68 C-51.109 69.236 -56.222 65.433 -62.121 63.68 C-65.158 63.392 -68.083 63.427 -71.121 63.68 C-72.291 66.46 -73.453 69.243 -74.605 72.031 C-75.663 74.576 -76.735 77.11 -77.824 79.641 C-78.382 80.966 -78.939 82.291 -79.496 83.617 C-79.771 84.243 -80.046 84.869 -80.329 85.514 C-81.889 89.279 -82.54 91.794 -81.121 95.68 C-79.164 97.503 -79.164 97.503 -77.121 98.68 C-77.451 100.33 -77.781 101.98 -78.121 103.68 C-79.832 104.406 -79.832 104.406 -82.121 104.68 C-90.501 99.358 -96.327 90.553 -102.121 82.68 C-103.261 81.196 -104.406 79.716 -105.559 78.242 C-107.615 75.609 -109.668 72.973 -111.715 70.332 C-114.49 66.759 -117.295 63.212 -120.121 59.68 C-120.848 58.77 -121.575 57.86 -122.324 56.922 C-127.402 50.865 -131.898 47.324 -139.809 46.117 C-144.041 46.836 -145.46 48.392 -148.121 51.68 C-149.703 54.844 -149.363 58.27 -149.438 61.75 C-149.469 62.944 -149.469 62.944 -149.5 64.163 C-149.566 66.71 -149.625 69.257 -149.684 71.805 C-149.727 73.53 -149.77 75.255 -149.814 76.98 C-149.922 81.213 -150.023 85.447 -150.121 89.68 C-148.8 89.596 -148.8 89.596 -147.453 89.51 C-137.926 89.154 -137.926 89.154 -134.121 91.637 C-133.131 93.05 -133.131 93.05 -132.121 94.492 C-131.553 95.267 -131.553 95.267 -130.973 96.058 C-129.641 97.903 -128.384 99.788 -127.121 101.68 C-125.978 103.322 -124.832 104.963 -123.684 106.602 C-120.443 111.259 -117.267 115.957 -114.121 120.68 C-113.131 122.165 -113.131 122.165 -112.121 123.68 C-111.7 125.697 -111.367 127.732 -111.086 129.773 C-110.916 130.968 -110.747 132.163 -110.572 133.395 C-110.403 134.644 -110.233 135.893 -110.059 137.18 C-109.716 139.649 -109.371 142.118 -109.023 144.586 C-108.874 145.682 -108.724 146.779 -108.57 147.908 C-108.185 150.756 -108.185 150.756 -107.121 153.68 C-106.841 156.541 -106.604 159.391 -106.402 162.258 C-106.308 163.525 -106.308 163.525 -106.212 164.818 C-106.011 167.522 -105.816 170.226 -105.621 172.93 C-105.426 175.619 -105.229 178.309 -105.03 180.999 C-104.906 182.671 -104.785 184.344 -104.666 186.017 C-104.609 186.788 -104.553 187.559 -104.494 188.353 C-104.446 189.021 -104.398 189.689 -104.349 190.378 C-104.163 192.258 -103.904 194.13 -103.625 195.999 C-103.126 199.647 -102.866 203.226 -102.688 206.903 C-102.654 207.595 -102.619 208.287 -102.584 208.999 C-102.471 211.294 -102.362 213.588 -102.254 215.883 C-102.174 217.529 -102.094 219.175 -102.013 220.821 C-101.798 225.265 -101.587 229.709 -101.377 234.153 C-101.246 236.935 -101.114 239.717 -100.981 242.499 C-99.739 268.648 -98.551 294.8 -97.469 320.956 C-97.373 323.261 -97.274 325.565 -97.175 327.87 C-96.517 343.196 -95.974 358.527 -95.819 373.868 C-95.802 375.327 -95.778 376.786 -95.747 378.245 C-95.707 380.256 -95.696 382.267 -95.687 384.279 C-95.674 385.422 -95.661 386.564 -95.647 387.742 C-96.23 391.354 -97.256 392.473 -100.121 394.68 C-107.666 397.536 -115.671 396.904 -123.621 396.805 C-125.03 396.795 -126.439 396.786 -127.848 396.777 C-131.272 396.754 -134.697 396.721 -138.121 396.68 C-138.098 400.244 -138.021 403.804 -137.934 407.367 C-137.928 408.375 -137.922 409.382 -137.916 410.42 C-137.759 416.585 -137.759 416.585 -134.695 421.824 C-131.192 424.349 -129.472 424.812 -125.212 424.885 C-124.191 424.905 -123.171 424.925 -122.119 424.945 C-121.014 424.962 -119.908 424.979 -118.77 424.996 C-117.64 425.017 -116.511 425.038 -115.348 425.059 C-111.731 425.125 -108.113 425.183 -104.496 425.242 C-102.048 425.285 -99.6 425.329 -97.152 425.373 C-91.142 425.48 -85.132 425.582 -79.121 425.68 C-81.62 422.943 -83.481 421.784 -87.291 421.542 C-88.131 421.535 -88.971 421.529 -89.836 421.522 C-90.79 421.512 -91.745 421.501 -92.728 421.491 C-93.756 421.484 -94.784 421.476 -95.844 421.469 C-98.012 421.441 -100.181 421.412 -102.35 421.383 C-105.775 421.341 -109.201 421.305 -112.627 421.278 C-115.929 421.251 -119.23 421.205 -122.531 421.156 C-123.561 421.153 -124.592 421.15 -125.653 421.146 C-126.604 421.13 -127.555 421.113 -128.535 421.096 C-129.375 421.088 -130.214 421.08 -131.079 421.072 C-131.753 420.942 -132.427 420.813 -133.121 420.68 C-135.121 417.68 -135.121 417.68 -135.148 415.277 C-133.676 411.554 -130.987 410.096 -127.684 408.117 C-127.055 407.727 -126.426 407.337 -125.778 406.936 C-113.799 399.68 -113.799 399.68 -108.121 399.68 C-107.791 401 -107.461 402.32 -107.121 403.68 C-105.938 403.922 -104.754 404.164 -103.535 404.414 C-78.43 409.681 -78.43 409.681 -71.746 418.492 C-70.77 421.909 -71.003 425.135 -71.121 428.68 C-69.141 428.68 -67.161 428.68 -65.121 428.68 C-65.121 429.34 -65.121 430 -65.121 430.68 C-65.82 430.74 -66.518 430.801 -67.238 430.863 C-68.148 430.947 -69.058 431.031 -69.996 431.117 C-70.901 431.198 -71.806 431.28 -72.738 431.363 C-75.132 431.55 -75.132 431.55 -77.121 432.68 C-78.867 432.775 -80.617 432.808 -82.365 432.809 C-83.46 432.812 -84.554 432.815 -85.682 432.819 C-87.462 432.816 -87.462 432.816 -89.277 432.812 C-90.491 432.813 -91.704 432.814 -92.954 432.815 C-95.523 432.816 -98.092 432.814 -100.661 432.81 C-104.605 432.805 -108.548 432.81 -112.492 432.816 C-114.983 432.816 -117.474 432.814 -119.965 432.812 C-121.151 432.815 -122.338 432.817 -123.56 432.819 C-124.655 432.815 -125.749 432.812 -126.877 432.809 C-127.844 432.808 -128.81 432.807 -129.806 432.807 C-132.121 432.68 -132.121 432.68 -134.121 431.68 C-135.495 431.53 -136.874 431.431 -138.254 431.363 C-139.06 431.321 -139.865 431.279 -140.695 431.236 C-141.537 431.197 -142.379 431.158 -143.246 431.117 C-144.096 431.074 -144.945 431.031 -145.82 430.986 C-147.92 430.88 -150.021 430.779 -152.121 430.68 C-152.121 430.02 -152.121 429.36 -152.121 428.68 C-148.491 428.35 -144.861 428.02 -141.121 427.68 C-141.61 426.991 -142.099 426.302 -142.603 425.593 C-144.406 422.133 -144.467 419.949 -144.414 416.066 C-144.404 414.819 -144.395 413.572 -144.385 412.287 C-144.36 410.994 -144.334 409.7 -144.309 408.367 C-144.295 407.054 -144.282 405.741 -144.268 404.389 C-144.232 401.152 -144.183 397.916 -144.121 394.68 C-144.746 394.557 -145.371 394.435 -146.016 394.309 C-148.121 393.68 -148.121 393.68 -149.809 391.617 C-153.036 384.394 -152.386 375.587 -152.621 367.809 C-152.662 366.573 -152.702 365.337 -152.744 364.064 C-152.873 360.123 -152.998 356.183 -153.121 352.242 C-153.285 347.077 -153.451 341.911 -153.621 336.746 C-153.662 335.5 -153.703 334.254 -153.745 332.971 C-154.011 325.146 -154.402 317.341 -154.902 309.528 C-155.351 301.636 -155.488 293.732 -155.673 285.831 C-155.886 276.94 -156.249 268.093 -156.88 259.219 C-158.635 233.426 -158.236 207.514 -158.121 181.68 C-159.111 181.68 -160.101 181.68 -161.121 181.68 C-161.102 182.239 -161.083 182.799 -161.063 183.375 C-160.924 190.914 -161.785 198.206 -162.766 205.672 C-162.938 207.025 -163.111 208.379 -163.282 209.732 C-163.734 213.29 -164.194 216.846 -164.655 220.402 C-165.381 226.006 -166.099 231.611 -166.813 237.217 C-166.99 238.604 -167.167 239.991 -167.344 241.377 C-168.744 252.335 -169.991 263.301 -171.086 274.294 C-172.043 283.694 -173.582 292.955 -175.215 302.258 C-176.038 307.031 -176.666 311.802 -177.184 316.617 C-178.02 324.398 -179.366 332.045 -180.773 339.74 C-182.005 346.603 -182.993 353.495 -183.818 360.418 C-184.594 366.898 -185.458 373.361 -186.496 379.805 C-186.598 380.503 -186.7 381.201 -186.804 381.921 C-187.711 387.299 -189.478 391.571 -193.82 395.035 C-197.505 396.067 -201.125 396.016 -204.934 395.992 C-205.769 395.991 -206.605 395.99 -207.466 395.988 C-215.279 395.869 -222.552 394.58 -230.121 392.68 C-231.508 399.329 -232.363 405.894 -232.496 412.68 C-232.539 414.536 -232.539 414.536 -232.582 416.43 C-232.385 419.742 -232.385 419.742 -230.285 422.055 C-227.17 424.394 -224.617 424.807 -220.833 424.885 C-219.973 424.905 -219.112 424.925 -218.225 424.945 C-217.3 424.962 -216.375 424.979 -215.422 424.996 C-214.472 425.017 -213.522 425.038 -212.543 425.059 C-209.506 425.124 -206.47 425.183 -203.434 425.242 C-201.376 425.285 -199.318 425.329 -197.26 425.373 C-192.214 425.48 -187.167 425.581 -182.121 425.68 C-182.965 423.518 -182.965 423.518 -185.126 422.574 C-189.14 421.375 -192.868 421.382 -197.035 421.371 C-198.783 421.346 -200.53 421.321 -202.277 421.295 C-205.02 421.266 -207.764 421.242 -210.507 421.223 C-213.162 421.202 -215.817 421.162 -218.473 421.121 C-219.295 421.121 -220.116 421.121 -220.963 421.121 C-226.699 421.021 -226.699 421.021 -228.826 419.303 C-230.121 417.68 -230.121 417.68 -230.684 415.305 C-229.861 411.464 -227.174 409.874 -224.121 407.68 C-221.85 406.355 -219.535 405.104 -217.184 403.93 C-216.02 403.337 -214.856 402.744 -213.656 402.133 C-209.957 400.612 -207.067 400.063 -203.121 399.68 C-202.585 400.84 -202.585 400.84 -202.039 402.023 C-199.535 405.491 -197.49 405.952 -193.434 407.18 C-185.1 409.938 -177.854 412.989 -173.121 420.68 C-172.736 423.731 -172.816 426.625 -173.121 429.68 C-178.733 433.272 -183.705 433.086 -190.137 433.008 C-191.189 433.006 -192.241 433.004 -193.325 433.002 C-195.541 432.995 -197.756 432.982 -199.972 432.961 C-203.373 432.93 -206.774 432.92 -210.176 432.914 C-212.329 432.905 -214.483 432.895 -216.637 432.883 C-217.658 432.879 -218.678 432.874 -219.73 432.87 C-221.142 432.856 -221.142 432.856 -222.583 432.841 C-223.413 432.834 -224.243 432.827 -225.099 432.82 C-227.121 432.68 -227.121 432.68 -229.121 431.68 C-230.641 431.528 -232.166 431.431 -233.691 431.363 C-234.587 431.321 -235.483 431.279 -236.406 431.236 C-237.812 431.177 -237.812 431.177 -239.246 431.117 C-240.191 431.074 -241.136 431.031 -242.109 430.986 C-244.446 430.88 -246.784 430.778 -249.121 430.68 C-249.121 430.02 -249.121 429.36 -249.121 428.68 C-244.831 428.35 -240.541 428.02 -236.121 427.68 C-237.441 426.03 -238.761 424.38 -240.121 422.68 C-241.949 412.285 -239.431 399.609 -236.121 389.68 C-237.08 389.247 -237.08 389.247 -238.059 388.805 C-240.121 387.68 -240.121 387.68 -241.121 385.68 C-241.881 376.737 -240.314 367.92 -238.934 359.117 C-238.706 357.623 -238.478 356.129 -238.252 354.635 C-237.782 351.533 -237.308 348.432 -236.831 345.331 C-235.813 338.686 -234.843 332.034 -233.871 325.382 C-233.351 321.823 -232.828 318.265 -232.305 314.707 C-232.204 314.021 -232.103 313.335 -231.999 312.628 C-231.37 308.354 -230.734 304.081 -230.094 299.809 C-229.769 297.641 -229.445 295.473 -229.121 293.305 C-228.962 292.238 -228.802 291.172 -228.638 290.074 C-227.699 283.74 -226.802 277.403 -225.938 271.059 C-223.494 253.129 -220.808 235.281 -217.759 217.442 C-216.621 210.734 -215.523 204.02 -214.434 197.305 C-214.326 196.645 -214.219 195.985 -214.108 195.305 C-212.935 188.068 -211.825 180.84 -210.996 173.555 C-210.363 168.101 -209.289 162.937 -207.973 157.613 C-206.736 152.231 -205.968 146.759 -205.121 141.305 C-203.85 133.121 -202.484 125.004 -200.758 116.902 C-200.127 113.709 -199.717 110.533 -199.309 107.305 C-198.24 100.653 -195.28 95.414 -190.176 90.996 C-186.159 88.422 -182.509 88.602 -177.824 88.801 C-176.016 88.873 -176.016 88.873 -174.172 88.947 C-172.29 89.031 -172.29 89.031 -170.371 89.117 C-169.101 89.169 -167.832 89.222 -166.523 89.275 C-163.389 89.405 -160.255 89.54 -157.121 89.68 C-157.137 88.661 -157.153 87.643 -157.169 86.594 C-157.223 82.784 -157.258 78.975 -157.286 75.166 C-157.301 73.523 -157.321 71.88 -157.347 70.237 C-157.384 67.864 -157.401 65.491 -157.414 63.117 C-157.43 62.393 -157.445 61.669 -157.461 60.922 C-157.463 54.781 -156.271 49.207 -152.184 44.402 C-151.503 43.854 -150.822 43.307 -150.121 42.742 C-149.44 42.176 -148.76 41.61 -148.059 41.027 C-144.065 38.25 -139.815 38.024 -135.121 38.68 C-121.62 42.719 -112.371 56.141 -104.361 67.003 C-102.206 69.918 -100.008 72.799 -97.809 75.68 C-97.029 76.711 -96.249 77.742 -95.445 78.805 C-93.142 81.654 -90.756 84.143 -88.121 86.68 C-87.864 85.876 -87.864 85.876 -87.601 85.056 C-85.702 79.23 -83.547 73.545 -81.246 67.867 C-80.718 66.56 -80.718 66.56 -80.179 65.226 C-79.479 63.498 -78.779 61.771 -78.077 60.044 C-77.249 57.997 -76.435 55.946 -75.629 53.891 C-75.214 52.852 -74.799 51.813 -74.371 50.742 C-74.026 49.867 -73.68 48.992 -73.324 48.09 C-71.923 45.283 -70.15 43.062 -68.121 40.68 C-65.151 41.175 -65.151 41.175 -62.121 41.68 C-62.571 47.532 -65.159 51.762 -68.121 56.68 C-67.275 56.838 -66.43 56.997 -65.559 57.16 C-55.853 59.156 -49.637 62.338 -42.121 68.68 C-41.997 68.082 -41.874 67.483 -41.746 66.867 C-41.121 64.68 -41.121 64.68 -39.121 61.68 C-40.771 61.68 -42.421 61.68 -44.121 61.68 C-44.451 60.69 -44.781 59.7 -45.121 58.68 C-44.131 58.68 -43.141 58.68 -42.121 58.68 C-42.121 57.69 -42.121 56.7 -42.121 55.68 C-44.431 55.68 -46.741 55.68 -49.121 55.68 C-48.791 54.69 -48.461 53.7 -48.121 52.68 C-47.461 52.68 -46.801 52.68 -46.121 52.68 C-46.121 52.02 -46.121 51.36 -46.121 50.68 C-48.761 51.01 -51.401 51.34 -54.121 51.68 C-54.121 50.36 -54.121 49.04 -54.121 47.68 C-55.111 48.67 -55.111 48.67 -56.121 49.68 C-57.441 49.68 -58.761 49.68 -60.121 49.68 C-59.725 48.195 -59.304 46.717 -58.871 45.242 C-58.523 44.007 -58.523 44.007 -58.168 42.746 C-57.121 40.68 -57.121 40.68 -55.012 39.895 C-54.076 39.788 -54.076 39.788 -53.121 39.68 C-53.035 38.929 -52.948 38.179 -52.859 37.406 C-50.906 23.178 -44.36 13.309 -33.184 4.305 C-23.063 -2.708 -11.543 -5.06 0 0 Z " fill="#030304" transform="translate(518.12109375,526.3203125)"/>
<path d="M0 0 C0.681 -0.004 1.363 -0.008 2.065 -0.012 C4.341 -0.022 6.616 -0.018 8.892 -0.014 C10.527 -0.018 12.162 -0.023 13.797 -0.029 C18.233 -0.043 22.668 -0.043 27.104 -0.041 C30.81 -0.04 34.515 -0.045 38.22 -0.049 C46.963 -0.061 55.706 -0.061 64.449 -0.055 C73.463 -0.049 82.477 -0.061 91.491 -0.083 C99.235 -0.1 106.978 -0.106 114.722 -0.103 C119.345 -0.101 123.968 -0.104 128.591 -0.118 C132.94 -0.13 137.288 -0.128 141.637 -0.115 C143.23 -0.113 144.824 -0.116 146.417 -0.124 C148.598 -0.134 150.777 -0.126 152.958 -0.114 C154.176 -0.114 155.395 -0.114 156.65 -0.114 C162.039 0.47 166.686 2.477 170.856 6.011 C171.408 6.459 171.959 6.908 172.528 7.37 C177.725 13.596 177.537 20.239 177.494 27.976 C177.502 29.719 177.502 29.719 177.51 31.496 C177.523 35.326 177.514 39.154 177.504 42.983 C177.506 45.649 177.509 48.315 177.513 50.982 C177.518 56.564 177.511 62.146 177.497 67.729 C177.481 74.173 177.486 80.617 177.502 87.062 C177.516 92.607 177.518 98.152 177.51 103.697 C177.505 107.004 177.506 110.31 177.515 113.617 C177.522 117.303 177.511 120.989 177.494 124.675 C177.5 125.765 177.506 126.854 177.512 127.977 C177.453 135 176.543 139.418 171.856 144.886 C166.316 149.67 162.214 151.758 154.871 151.782 C153.83 151.794 153.83 151.794 152.768 151.805 C150.461 151.826 148.155 151.818 145.849 151.81 C144.187 151.819 142.526 151.829 140.865 151.841 C136.365 151.868 131.865 151.869 127.365 151.864 C123.602 151.862 119.84 151.871 116.078 151.881 C107.199 151.903 98.32 151.904 89.44 151.892 C80.293 151.88 71.146 151.905 61.999 151.947 C54.134 151.982 46.269 151.994 38.404 151.988 C33.711 151.984 29.019 151.989 24.327 152.017 C19.912 152.043 15.499 152.039 11.084 152.013 C9.469 152.008 7.853 152.013 6.238 152.03 C-2.872 152.116 -9.974 151.799 -16.894 145.261 C-21.183 140.752 -23.137 136.423 -23.162 130.196 C-23.17 129.199 -23.179 128.202 -23.187 127.176 C-23.187 126.093 -23.186 125.011 -23.185 123.896 C-23.191 122.748 -23.198 121.599 -23.205 120.416 C-23.224 116.618 -23.228 112.82 -23.23 109.022 C-23.236 106.381 -23.243 103.739 -23.25 101.097 C-23.263 95.558 -23.266 90.02 -23.265 84.481 C-23.264 78.092 -23.285 71.703 -23.316 65.315 C-23.346 59.155 -23.353 52.995 -23.352 46.835 C-23.354 44.22 -23.363 41.606 -23.378 38.992 C-23.398 35.332 -23.392 31.673 -23.38 28.013 C-23.391 26.937 -23.402 25.861 -23.414 24.752 C-23.352 17.327 -22.135 12.016 -17.148 6.237 C-16.59 5.791 -16.032 5.345 -15.457 4.886 C-14.901 4.424 -14.345 3.963 -13.773 3.487 C-9.248 0.533 -5.357 0.009 0 0 Z " fill="#FEFEFE" transform="translate(316.8941345214844,206.7393035888672)"/>
<path d="M0 0 C0.763 -0.003 1.526 -0.006 2.312 -0.009 C4.869 -0.017 7.427 -0.011 9.985 -0.005 C11.818 -0.008 13.651 -0.011 15.485 -0.015 C20.466 -0.025 25.447 -0.021 30.429 -0.015 C35.64 -0.01 40.852 -0.014 46.064 -0.017 C54.818 -0.021 63.573 -0.016 72.327 -0.007 C82.447 0.004 92.568 0.001 102.688 -0.01 C111.375 -0.02 120.062 -0.021 128.749 -0.016 C133.938 -0.012 139.127 -0.012 144.316 -0.019 C149.197 -0.024 154.077 -0.02 158.958 -0.009 C160.748 -0.006 162.539 -0.007 164.33 -0.011 C166.775 -0.017 169.221 -0.01 171.666 0 C172.374 -0.004 173.081 -0.009 173.81 -0.014 C181.252 0.045 187.049 2.24 192.46 7.254 C197.028 13.421 198.192 18.846 198.107 26.388 C198.116 27.359 198.125 28.329 198.134 29.329 C198.156 32.511 198.141 35.693 198.124 38.875 C198.128 41.103 198.132 43.33 198.139 45.558 C198.146 50.217 198.135 54.876 198.112 59.535 C198.083 65.488 198.1 71.44 198.13 77.393 C198.148 81.99 198.142 86.588 198.129 91.185 C198.126 93.379 198.13 95.573 198.142 97.767 C198.154 100.842 198.135 103.915 198.107 106.99 C198.117 107.884 198.127 108.779 198.138 109.7 C198.027 116.397 196.185 121.665 192.46 127.254 C190.277 129.322 188.139 130.892 185.46 132.254 C184.447 132.773 184.447 132.773 183.413 133.303 C179.348 134.612 175.62 134.482 171.378 134.414 C170.472 134.408 169.565 134.402 168.631 134.396 C166.666 134.383 164.701 134.366 162.735 134.345 C158.542 134.306 154.348 134.304 150.154 134.3 C142.354 134.292 134.554 134.271 126.755 134.182 C121.321 134.122 115.89 134.11 110.456 134.131 C108.396 134.13 106.335 134.111 104.275 134.073 C92.192 133.859 84.159 134.344 75.023 142.715 C74.177 143.553 73.332 144.391 72.46 145.254 C71.079 146.288 71.079 146.288 69.671 147.343 C67.079 149.196 67.079 149.196 66.648 153.004 C66.586 154.076 66.524 155.149 66.46 156.254 C64.394 153.554 62.49 150.798 60.648 147.941 C57.872 143.739 54.814 140.007 51.46 136.254 C55.725 136.457 57.893 137.339 60.835 140.316 C61.701 141.286 62.568 142.255 63.46 143.254 C66.499 141.844 69.054 140.165 71.71 138.129 C72.417 137.59 73.123 137.051 73.851 136.496 C74.382 136.086 74.913 135.676 75.46 135.254 C74.542 135.229 73.624 135.204 72.678 135.178 C69.264 135.083 65.849 134.984 62.435 134.882 C60.959 134.838 59.483 134.797 58.007 134.757 C55.882 134.699 53.757 134.635 51.632 134.57 C49.715 134.515 49.715 134.515 47.76 134.459 C45.109 134.294 42.994 133.93 40.46 133.254 C38.97 133.165 37.476 133.123 35.984 133.121 C35.148 133.12 34.313 133.119 33.452 133.117 C32.589 133.121 31.725 133.125 30.835 133.129 C29.528 133.123 29.528 133.123 28.194 133.117 C27.362 133.119 26.529 133.12 25.671 133.121 C24.911 133.122 24.151 133.123 23.368 133.125 C21.373 133.137 21.373 133.137 19.46 134.254 C15.258 134.553 11.047 134.532 6.835 134.566 C5.671 134.595 4.507 134.624 3.308 134.654 C-4.738 134.714 -10.314 133.815 -16.528 128.578 C-16.965 128.038 -17.402 127.498 -17.852 126.941 C-18.527 126.143 -18.527 126.143 -19.216 125.328 C-23.228 119.043 -23.981 113.919 -23.944 106.606 C-23.951 105.664 -23.958 104.721 -23.965 103.75 C-23.983 100.65 -23.979 97.55 -23.973 94.449 C-23.978 92.284 -23.983 90.118 -23.989 87.952 C-23.998 83.418 -23.996 78.884 -23.986 74.35 C-23.974 68.554 -23.995 62.759 -24.024 56.963 C-24.042 52.492 -24.042 48.021 -24.036 43.549 C-24.036 41.413 -24.042 39.277 -24.055 37.141 C-24.069 34.147 -24.059 31.154 -24.042 28.161 C-24.051 27.288 -24.061 26.415 -24.071 25.515 C-23.987 18.445 -22.191 12.356 -17.54 6.914 C-16.88 6.387 -16.22 5.86 -15.54 5.316 C-14.88 4.771 -14.22 4.226 -13.54 3.664 C-9.017 0.475 -5.49 -0.034 0 0 Z " fill="#FEFEFE" transform="translate(632.5398864746094,264.74603271484375)"/>
<path d="M0 0 C6.012 2.552 9.632 7.591 13 13 C15.751 21.254 14.899 28.952 11.136 36.603 C10.035 38.684 8.903 40.744 7.75 42.797 C5.84 45.684 5.84 45.684 6 48 C6.935 49.692 7.922 51.355 8.938 53 C12.846 59.358 13.751 63.462 13 71 C11.526 75.546 10.004 78.331 6 81 C2.159 81.356 -0.373 81.267 -3.938 79.75 C-4.618 79.173 -5.299 78.595 -6 78 C-6 76.68 -6 75.36 -6 74 C-0.06 74.99 -0.06 74.99 6 76 C8.477 69.961 9.337 64.34 6.879 58.199 C5.656 55.751 4.381 53.362 3 51 C0.27 51.508 -2.151 52.058 -4.75 53.062 C-8.905 54.261 -12.708 54.172 -17 54 C-17 54.701 -17 55.403 -17 56.125 C-18.175 59.502 -19.112 59.983 -22 61.938 C-24.871 63.96 -25.869 64.7 -27.312 68 C-26.765 73.255 -22.973 76.05 -19.375 79.562 C-15.658 83.377 -13.832 86.076 -13.625 91.438 C-13.833 96.46 -14.995 99.981 -18.617 103.629 C-25.407 109.675 -30.828 110.617 -39.758 110.375 C-55.779 109.365 -69.201 97.956 -80 87 C-86.196 79.917 -88.54 74.172 -88.379 64.676 C-87.302 54.233 -82.987 44.546 -77 36 C-76.257 34.928 -75.515 33.855 -74.75 32.75 C-70.652 28.652 -65.656 24.622 -59.797 23.625 C-57.875 23.625 -57.875 23.625 -55 24 C-54.959 23.175 -54.918 22.35 -54.875 21.5 C-52.859 13.437 -46.736 8.386 -40 4 C-38.608 3.072 -38.608 3.072 -37.188 2.125 C-32.123 0.337 -26.102 0.047 -20.914 1.641 C-18.96 2.208 -18.96 2.208 -17.203 1.094 C-12.086 -1.447 -5.551 -0.66 0 0 Z " fill="#030304" transform="translate(378,465)"/>
<path d="M0 0 C0.763 -0.003 1.526 -0.006 2.312 -0.009 C4.869 -0.017 7.427 -0.011 9.985 -0.005 C11.818 -0.008 13.651 -0.011 15.485 -0.015 C20.466 -0.025 25.447 -0.021 30.429 -0.015 C35.64 -0.01 40.852 -0.014 46.064 -0.017 C54.818 -0.021 63.573 -0.016 72.327 -0.007 C82.447 0.004 92.568 0.001 102.688 -0.01 C111.375 -0.02 120.062 -0.021 128.749 -0.016 C133.938 -0.012 139.127 -0.012 144.316 -0.019 C149.197 -0.024 154.077 -0.02 158.958 -0.009 C160.748 -0.006 162.539 -0.007 164.33 -0.011 C166.775 -0.017 169.221 -0.01 171.666 0 C172.374 -0.004 173.081 -0.009 173.81 -0.014 C181.252 0.045 187.049 2.24 192.46 7.254 C197.028 13.421 198.192 18.846 198.107 26.388 C198.116 27.359 198.125 28.329 198.134 29.329 C198.156 32.511 198.141 35.693 198.124 38.875 C198.128 41.103 198.132 43.33 198.139 45.558 C198.146 50.217 198.135 54.876 198.112 59.535 C198.083 65.488 198.1 71.44 198.13 77.393 C198.148 81.99 198.142 86.588 198.129 91.185 C198.126 93.379 198.13 95.573 198.142 97.767 C198.154 100.842 198.135 103.915 198.107 106.99 C198.117 107.884 198.127 108.779 198.138 109.7 C198.027 116.397 196.185 121.665 192.46 127.254 C190.277 129.322 188.139 130.892 185.46 132.254 C184.447 132.773 184.447 132.773 183.413 133.303 C179.348 134.612 175.62 134.482 171.378 134.414 C170.472 134.408 169.565 134.402 168.631 134.396 C166.666 134.383 164.701 134.366 162.735 134.345 C158.542 134.306 154.348 134.304 150.154 134.3 C142.354 134.292 134.554 134.271 126.755 134.182 C121.321 134.122 115.89 134.11 110.456 134.131 C108.396 134.13 106.335 134.111 104.275 134.073 C92.192 133.859 84.159 134.344 75.023 142.715 C74.177 143.553 73.332 144.391 72.46 145.254 C71.079 146.288 71.079 146.288 69.671 147.343 C67.079 149.196 67.079 149.196 66.648 153.004 C66.586 154.076 66.524 155.149 66.46 156.254 C64.394 153.554 62.49 150.798 60.648 147.941 C57.872 143.739 54.814 140.007 51.46 136.254 C55.725 136.457 57.893 137.339 60.835 140.316 C61.701 141.286 62.568 142.255 63.46 143.254 C66.499 141.844 69.054 140.165 71.71 138.129 C72.417 137.59 73.123 137.051 73.851 136.496 C74.382 136.086 74.913 135.676 75.46 135.254 C74.542 135.229 73.624 135.204 72.678 135.178 C69.264 135.083 65.849 134.984 62.435 134.882 C60.959 134.838 59.483 134.797 58.007 134.757 C55.882 134.699 53.757 134.635 51.632 134.57 C49.715 134.515 49.715 134.515 47.76 134.459 C45.109 134.294 42.994 133.93 40.46 133.254 C38.97 133.165 37.476 133.123 35.984 133.121 C35.148 133.12 34.313 133.119 33.452 133.117 C32.589 133.121 31.725 133.125 30.835 133.129 C29.528 133.123 29.528 133.123 28.194 133.117 C27.362 133.119 26.529 133.12 25.671 133.121 C24.911 133.122 24.151 133.123 23.368 133.125 C21.373 133.137 21.373 133.137 19.46 134.254 C15.258 134.553 11.047 134.532 6.835 134.566 C5.671 134.595 4.507 134.624 3.308 134.654 C-4.738 134.714 -10.314 133.815 -16.528 128.578 C-16.965 128.038 -17.402 127.498 -17.852 126.941 C-18.527 126.143 -18.527 126.143 -19.216 125.328 C-23.228 119.043 -23.981 113.919 -23.944 106.606 C-23.951 105.664 -23.958 104.721 -23.965 103.75 C-23.983 100.65 -23.979 97.55 -23.973 94.449 C-23.978 92.284 -23.983 90.118 -23.989 87.952 C-23.998 83.418 -23.996 78.884 -23.986 74.35 C-23.974 68.554 -23.995 62.759 -24.024 56.963 C-24.042 52.492 -24.042 48.021 -24.036 43.549 C-24.036 41.413 -24.042 39.277 -24.055 37.141 C-24.069 34.147 -24.059 31.154 -24.042 28.161 C-24.051 27.288 -24.061 26.415 -24.071 25.515 C-23.987 18.445 -22.191 12.356 -17.54 6.914 C-16.88 6.387 -16.22 5.86 -15.54 5.316 C-14.88 4.771 -14.22 4.226 -13.54 3.664 C-9.017 0.475 -5.49 -0.034 0 0 Z M-14.54 12.254 C-18.079 17.227 -17.968 21.951 -17.928 27.836 C-17.933 28.783 -17.939 29.73 -17.944 30.706 C-17.957 33.826 -17.948 36.946 -17.938 40.066 C-17.94 42.241 -17.943 44.415 -17.947 46.589 C-17.951 51.142 -17.945 55.694 -17.931 60.247 C-17.914 66.078 -17.924 71.908 -17.942 77.739 C-17.953 82.228 -17.949 86.716 -17.941 91.204 C-17.939 93.354 -17.942 95.504 -17.949 97.654 C-17.956 100.66 -17.945 103.666 -17.928 106.672 C-17.934 107.557 -17.94 108.443 -17.946 109.355 C-17.888 115.097 -17.087 119.525 -13.005 123.898 C-8.037 127.697 -5.364 128.402 0.766 128.394 C1.528 128.397 2.29 128.4 3.075 128.403 C5.641 128.412 8.207 128.414 10.774 128.415 C12.608 128.42 14.443 128.425 16.277 128.43 C21.271 128.443 26.265 128.45 31.259 128.454 C34.377 128.457 37.495 128.461 40.613 128.466 C50.363 128.479 60.114 128.489 69.864 128.493 C81.129 128.497 92.394 128.515 103.66 128.544 C112.36 128.565 121.061 128.576 129.762 128.577 C134.962 128.578 140.161 128.584 145.361 128.602 C150.252 128.618 155.143 128.62 160.034 128.612 C161.83 128.611 163.626 128.615 165.422 128.625 C167.872 128.638 170.322 128.632 172.773 128.621 C173.841 128.634 173.841 128.634 174.93 128.646 C180.1 128.594 183.344 127.354 187.007 123.719 C191.367 118.184 191.617 114.865 191.637 107.942 C191.647 106.493 191.647 106.493 191.657 105.015 C191.677 101.808 191.688 98.601 191.698 95.395 C191.702 94.301 191.707 93.207 191.711 92.08 C191.732 86.289 191.746 80.499 191.755 74.708 C191.766 68.725 191.801 62.742 191.84 56.758 C191.867 52.16 191.875 47.562 191.879 42.964 C191.883 40.758 191.895 38.552 191.914 36.347 C191.938 33.259 191.937 30.171 191.93 27.083 C191.943 26.173 191.956 25.262 191.969 24.324 C191.91 17.2 189.923 13.689 184.801 8.625 C181.322 5.791 178.03 5.548 173.655 5.612 C172.888 5.604 172.121 5.595 171.33 5.587 C168.769 5.564 166.209 5.578 163.648 5.591 C161.808 5.583 159.968 5.572 158.128 5.56 C153.136 5.533 148.144 5.537 143.153 5.549 C138.983 5.557 134.813 5.548 130.643 5.54 C120.803 5.52 110.964 5.525 101.125 5.547 C90.98 5.57 80.837 5.552 70.693 5.514 C61.977 5.483 53.262 5.475 44.547 5.486 C39.344 5.493 34.142 5.491 28.939 5.467 C24.046 5.445 19.153 5.454 14.259 5.484 C12.466 5.49 10.673 5.486 8.88 5.471 C-4.227 5.061 -4.227 5.061 -14.54 12.254 Z " fill="#141314" transform="translate(632.5398864746094,264.74603271484375)"/>
<path d="M0 0 C0.681 -0.004 1.363 -0.008 2.065 -0.012 C4.341 -0.022 6.616 -0.018 8.892 -0.014 C10.527 -0.018 12.162 -0.023 13.797 -0.029 C18.233 -0.043 22.668 -0.043 27.104 -0.041 C30.81 -0.04 34.515 -0.045 38.22 -0.049 C46.963 -0.061 55.706 -0.061 64.449 -0.055 C73.463 -0.049 82.477 -0.061 91.491 -0.083 C99.235 -0.1 106.978 -0.106 114.722 -0.103 C119.345 -0.101 123.968 -0.104 128.591 -0.118 C132.94 -0.13 137.288 -0.128 141.637 -0.115 C143.23 -0.113 144.824 -0.116 146.417 -0.124 C148.598 -0.134 150.777 -0.126 152.958 -0.114 C154.176 -0.114 155.395 -0.114 156.65 -0.114 C162.039 0.47 166.686 2.477 170.856 6.011 C171.408 6.459 171.959 6.908 172.528 7.37 C177.725 13.596 177.537 20.239 177.494 27.976 C177.502 29.719 177.502 29.719 177.51 31.496 C177.523 35.326 177.514 39.154 177.504 42.983 C177.506 45.649 177.509 48.315 177.513 50.982 C177.518 56.564 177.511 62.146 177.497 67.729 C177.481 74.173 177.486 80.617 177.502 87.062 C177.516 92.607 177.518 98.152 177.51 103.697 C177.505 107.004 177.506 110.31 177.515 113.617 C177.522 117.303 177.511 120.989 177.494 124.675 C177.5 125.765 177.506 126.854 177.512 127.977 C177.453 135 176.543 139.418 171.856 144.886 C166.316 149.67 162.214 151.758 154.871 151.782 C153.83 151.794 153.83 151.794 152.768 151.805 C150.461 151.826 148.155 151.818 145.849 151.81 C144.187 151.819 142.526 151.829 140.865 151.841 C136.365 151.868 131.865 151.869 127.365 151.864 C123.602 151.862 119.84 151.871 116.078 151.881 C107.199 151.903 98.32 151.904 89.44 151.892 C80.293 151.88 71.146 151.905 61.999 151.947 C54.134 151.982 46.269 151.994 38.404 151.988 C33.711 151.984 29.019 151.989 24.327 152.017 C19.912 152.043 15.499 152.039 11.084 152.013 C9.469 152.008 7.853 152.013 6.238 152.03 C-2.872 152.116 -9.974 151.799 -16.894 145.261 C-21.183 140.752 -23.137 136.423 -23.162 130.196 C-23.17 129.199 -23.179 128.202 -23.187 127.176 C-23.187 126.093 -23.186 125.011 -23.185 123.896 C-23.191 122.748 -23.198 121.599 -23.205 120.416 C-23.224 116.618 -23.228 112.82 -23.23 109.022 C-23.236 106.381 -23.243 103.739 -23.25 101.097 C-23.263 95.558 -23.266 90.02 -23.265 84.481 C-23.264 78.092 -23.285 71.703 -23.316 65.315 C-23.346 59.155 -23.353 52.995 -23.352 46.835 C-23.354 44.22 -23.363 41.606 -23.378 38.992 C-23.398 35.332 -23.392 31.673 -23.38 28.013 C-23.391 26.937 -23.402 25.861 -23.414 24.752 C-23.352 17.327 -22.135 12.016 -17.148 6.237 C-16.59 5.791 -16.032 5.345 -15.457 4.886 C-14.901 4.424 -14.345 3.963 -13.773 3.487 C-9.248 0.533 -5.357 0.009 0 0 Z M-14.207 12.886 C-16.56 16.197 -17.022 17.88 -17.048 21.889 C-17.057 22.865 -17.065 23.84 -17.074 24.846 C-17.078 25.92 -17.083 26.994 -17.087 28.101 C-17.095 29.23 -17.103 30.358 -17.112 31.521 C-17.137 35.27 -17.153 39.019 -17.168 42.769 C-17.173 44.047 -17.178 45.326 -17.184 46.644 C-17.205 52.021 -17.224 57.398 -17.235 62.775 C-17.252 70.472 -17.285 78.168 -17.342 85.865 C-17.385 91.935 -17.401 98.004 -17.407 104.074 C-17.414 106.652 -17.429 109.23 -17.453 111.808 C-17.485 115.42 -17.485 119.032 -17.478 122.644 C-17.502 124.237 -17.502 124.237 -17.527 125.863 C-17.473 132.4 -16.533 137.405 -11.894 142.261 C-7.89 145.286 -4.921 145.639 0.045 145.648 C1.074 145.656 1.074 145.656 2.124 145.665 C4.416 145.679 6.708 145.672 9 145.665 C10.646 145.67 12.292 145.677 13.939 145.686 C18.406 145.703 22.872 145.702 27.339 145.697 C31.07 145.694 34.8 145.7 38.53 145.706 C47.33 145.72 56.13 145.718 64.931 145.707 C74.008 145.695 83.084 145.709 92.161 145.736 C99.956 145.758 107.752 145.765 115.547 145.759 C120.202 145.756 124.857 145.758 129.511 145.775 C133.889 145.791 138.266 145.787 142.643 145.768 C144.248 145.764 145.854 145.767 147.459 145.778 C149.653 145.791 151.846 145.78 154.04 145.762 C155.267 145.762 156.494 145.761 157.758 145.761 C162.5 145.052 165.488 142.961 168.763 139.519 C172.547 133.737 172.819 128.718 172.753 121.923 C172.762 120.813 172.77 119.703 172.779 118.559 C172.801 114.907 172.787 111.256 172.77 107.604 C172.773 105.057 172.778 102.509 172.784 99.961 C172.792 94.628 172.782 89.296 172.758 83.963 C172.731 77.815 172.739 71.667 172.767 65.518 C172.792 59.582 172.79 53.646 172.775 47.709 C172.772 45.193 172.776 42.676 172.787 40.16 C172.8 36.639 172.781 33.119 172.753 29.599 C172.763 28.565 172.773 27.531 172.784 26.465 C172.687 19.853 171.62 15.238 167.106 10.261 C160.615 4.574 152.34 5.697 144.168 5.743 C142.541 5.738 140.915 5.731 139.288 5.722 C134.883 5.704 130.478 5.711 126.073 5.723 C121.458 5.734 116.844 5.724 112.229 5.718 C104.48 5.711 96.733 5.72 88.985 5.739 C80.032 5.761 71.079 5.754 62.126 5.732 C54.432 5.714 46.739 5.711 39.045 5.722 C34.453 5.728 29.861 5.729 25.269 5.716 C20.952 5.704 16.636 5.712 12.319 5.735 C10.736 5.74 9.154 5.739 7.571 5.73 C5.408 5.719 3.246 5.733 1.082 5.753 C-0.732 5.755 -0.732 5.755 -2.583 5.757 C-7.741 6.541 -10.816 9.037 -14.207 12.886 Z " fill="#141314" transform="translate(316.8941345214844,206.7393035888672)"/>
<path d="M0 0 C6.535 3.295 11.285 8.156 13.621 15.164 C14.433 21.915 13.008 26.391 9.621 32.164 C7.884 35.203 7.601 35.944 7.934 39.602 C10.04 44.049 12.02 44.759 16.293 46.848 C20.298 49.112 23.74 52.595 25.254 57.008 C26.282 63.044 27.023 69.102 23.496 74.289 C14.13 80.398 1.968 79.346 -8.816 79.352 C-10.542 79.37 -10.542 79.37 -12.303 79.389 C-29.856 79.419 -29.856 79.419 -36.504 75.164 C-40.192 71.23 -39.717 67.468 -39.648 62.27 C-39.073 55.64 -36.256 51.722 -31.441 47.289 C-28.527 44.885 -25.908 43.513 -22.379 42.164 C-21.17 40.164 -21.17 40.164 -20.379 38.164 C-19.389 37.669 -19.389 37.669 -18.379 37.164 C-19.142 36.422 -19.905 35.679 -20.691 34.914 C-25.612 29.88 -27.462 26.453 -27.754 19.414 C-27.672 13.844 -26.076 10.295 -22.379 6.164 C-15.742 0.238 -8.883 -3.121 0 0 Z " fill="#141314" transform="translate(243.37890625,279.8359375)"/>
<path d="M0 0 C1.011 0.577 2.021 1.155 3.062 1.75 C9.159 6.419 14.086 12.199 15.317 20.012 C15.473 22.143 15.519 24.238 15.5 26.375 C15.494 27.124 15.489 27.873 15.483 28.644 C15.215 36.925 12.179 41.832 6.625 47.812 C-0.859 54.824 -8.422 56.513 -18.516 56.398 C-27.662 55.353 -34.794 50.349 -40.441 43.27 C-45.592 35.769 -46.079 27.985 -45 19 C-43.03 12.879 -39.914 8.177 -35 4 C-34.237 3.299 -33.474 2.598 -32.688 1.875 C-23.464 -4.56 -9.841 -5.863 0 0 Z " fill="#FEFEFE" transform="translate(541,467)"/>
<path d="M0 0 C1.98 0.99 1.98 0.99 4 2 C4.341 9.759 3.345 16.906 1.812 24.5 C1.475 26.21 1.475 26.21 1.131 27.954 C-0.654 36.779 -2.835 45.422 -5.422 54.042 C-5.985 55.95 -6.507 57.869 -7.027 59.789 C-9.121 67.506 -11.735 74.707 -15 82 C-15.354 82.805 -15.707 83.611 -16.072 84.44 C-21.15 95.997 -26.386 107.236 -33 118 C-33.561 118.924 -34.121 119.849 -34.699 120.801 C-42.384 133.178 -51.002 144.555 -60.64 155.456 C-61.857 156.838 -63.059 158.235 -64.258 159.633 C-67.876 163.818 -71.613 167.585 -75.844 171.148 C-77.357 172.448 -78.834 173.791 -80.281 175.164 C-113.729 206.857 -158.347 226.976 -201 243 C-202.11 243.42 -203.219 243.839 -204.363 244.271 C-225.174 252.092 -246.545 260 -269 260 C-269 236.9 -269 213.8 -269 190 C-267.35 190 -265.7 190 -264 190 C-264 211.45 -264 232.9 -264 255 C-260.7 254.01 -257.4 253.02 -254 252 C-251.83 251.45 -249.654 250.919 -247.473 250.414 C-184.046 235.234 -119.411 205.561 -73 159 C-72.317 158.352 -71.634 157.703 -70.93 157.035 C-31.524 119.203 -5.931 57.958 -2.353 4.018 C-2 2 -2 2 0 0 Z " fill="#141314" transform="translate(791,550)"/>
<path d="M0 0 C2.095 -0.01 4.19 -0.041 6.285 -0.072 C18.52 -0.171 29.554 1.991 40.801 6.865 C42.009 7.385 42.009 7.385 43.242 7.915 C55.166 13.202 66.652 20.392 75.363 30.24 C75.363 31.23 75.363 32.22 75.363 33.24 C72.727 33.16 70.918 32.76 68.965 30.932 C68.457 30.373 67.949 29.815 67.426 29.24 C53.477 14.538 30.812 5.528 10.914 4.932 C8.168 4.886 5.422 4.869 2.676 4.865 C1.369 4.863 0.063 4.862 -1.283 4.86 C-12.462 4.989 -23.388 5.807 -33.824 10.053 C-34.499 10.318 -35.174 10.584 -35.87 10.858 C-61.225 20.997 -80.038 38.957 -90.945 63.908 C-93.634 70.484 -95.257 77.282 -96.637 84.24 C-96.825 85.144 -97.013 86.048 -97.207 86.979 C-100.446 111.568 -95.426 135.556 -81.637 156.24 C-81.637 157.23 -81.637 158.22 -81.637 159.24 C-84.221 158.873 -85.382 158.52 -87.164 156.561 C-90.94 150.682 -93.973 144.698 -96.637 138.24 C-97.009 137.353 -97.382 136.466 -97.766 135.553 C-106.84 112.516 -104.973 84.432 -95.324 61.928 C-94.144 59.34 -92.906 56.786 -91.637 54.24 C-91.113 53.181 -90.59 52.121 -90.051 51.029 C-85.817 43.16 -80.234 36.987 -74.019 30.662 C-72.844 29.454 -71.707 28.21 -70.578 26.959 C-52.704 7.586 -25.397 0.071 0 0 Z " fill="#141314" transform="translate(525.63671875,416.759765625)"/>
<path d="M0 0 C0.915 -0.015 1.83 -0.031 2.773 -0.046 C6.962 -0.056 11.15 -0.056 15.339 -0.018 C17.544 -0.008 19.748 -0.021 21.953 -0.057 C40.27 -0.355 40.27 -0.355 45.638 3.705 C47.678 6.508 49.087 9.144 50.472 12.31 C51.438 13.688 52.434 15.047 53.472 16.372 C55.472 19.31 55.472 19.31 55.472 21.31 C33.032 21.31 10.592 21.31 -12.528 21.31 C-11.39 6.512 -11.39 6.512 -7.528 2.31 C-4.386 0.215 -3.593 0.049 0 0 Z " fill="#FEFEFE" transform="translate(337.528076171875,621.690185546875)"/>
<path d="M0 0 C1.011 0.577 2.021 1.155 3.062 1.75 C9.159 6.419 14.086 12.199 15.317 20.012 C15.473 22.143 15.519 24.238 15.5 26.375 C15.494 27.124 15.489 27.873 15.483 28.644 C15.215 36.925 12.179 41.832 6.625 47.812 C-0.859 54.824 -8.422 56.513 -18.516 56.398 C-27.662 55.353 -34.794 50.349 -40.441 43.27 C-45.592 35.769 -46.079 27.985 -45 19 C-43.03 12.879 -39.914 8.177 -35 4 C-34.237 3.299 -33.474 2.598 -32.688 1.875 C-23.464 -4.56 -9.841 -5.863 0 0 Z M-32.812 11.875 C-37.498 17.6 -38.597 22.862 -38.438 30.188 C-37.397 36.878 -33.035 41.432 -27.875 45.5 C-22.173 49.622 -15.85 49.805 -9 49 C-1.397 46.445 2.743 42.869 6.75 36 C9.151 29.855 9.462 22.368 6.828 16.301 C3.043 10.399 -1.276 6.241 -8 4 C-18.925 2.889 -25.245 3.814 -32.812 11.875 Z " fill="#141314" transform="translate(541,467)"/>
<path d="M0 0 C4.836 2.418 9.01 5.273 11 10.5 C11.195 13.297 11.195 13.297 11.125 16.25 C11.107 17.235 11.089 18.22 11.07 19.234 C11.047 19.982 11.024 20.73 11 21.5 C4.841 24.217 -1.111 24.662 -7.777 24.703 C-8.507 24.709 -9.236 24.715 -9.988 24.72 C-11.524 24.73 -13.059 24.736 -14.594 24.74 C-16.927 24.75 -19.259 24.781 -21.592 24.812 C-23.091 24.819 -24.59 24.824 -26.09 24.828 C-27.123 24.847 -27.123 24.847 -28.177 24.866 C-32.971 24.844 -38.428 24.072 -42 20.5 C-42.564 15.589 -42.536 11.614 -40.375 7.125 C-37.715 4.185 -35.572 2.251 -32 0.5 C-28.594 0.67 -26.052 0.974 -23 2.5 C-20.753 2.65 -18.501 2.722 -16.25 2.75 C-14.432 2.789 -14.432 2.789 -12.578 2.828 C-7.824 2.392 -4.637 -0.773 0 0 Z " fill="#FEFEFE" transform="translate(252,328.5)"/>
<path d="M0 0 C4.302 1.499 6.094 4.67 8.375 8.375 C8.963 9.316 8.963 9.316 9.563 10.275 C15.603 20.074 20.093 29.833 23 41 C23.227 41.834 23.454 42.668 23.688 43.527 C26.667 56.626 26.083 71.994 23 85 C22.755 86.152 22.51 87.305 22.258 88.492 C16.319 113.772 -0.095 135.985 -22.008 149.834 C-39.584 160.117 -59.093 165.37 -79.375 165.312 C-80.504 165.329 -81.633 165.345 -82.797 165.361 C-90.891 165.366 -98.199 164.129 -106 162 C-106.33 160.68 -106.66 159.36 -107 158 C-99.558 158.898 -99.558 158.898 -96.234 159.505 C-73.382 163.004 -51.429 159.304 -31 149 C-29.93 148.465 -28.86 147.93 -27.758 147.379 C-19.754 143.044 -13.389 137.38 -7 131 C-5.776 129.793 -5.776 129.793 -4.527 128.562 C12.153 111.167 20.17 86.352 20.188 62.625 C20.2 61.743 20.212 60.862 20.225 59.953 C20.266 40.998 12.516 22.138 1.723 6.754 C0 4 0 4 0 0 Z " fill="#141314" transform="translate(605,454)"/>
<path d="M0 0 C4.048 1.973 5.426 6.879 6.859 10.906 C7.852 16.681 6.961 20.866 3.859 25.906 C-4.712 26.192 -4.712 26.192 -8.141 23.906 C-7.946 25.856 -7.946 25.856 -7.141 27.906 C-4.087 30.055 -0.785 30.409 2.859 30.906 C0.733 35.806 -2.833 38.856 -7.141 41.906 C-9.152 42.66 -9.152 42.66 -11.016 43.094 C-14.253 43.568 -14.253 43.568 -15.578 46.031 C-15.857 46.959 -15.857 46.959 -16.141 47.906 C-17.331 45.526 -17.092 44.405 -16.891 41.781 C-16.847 36.367 -18.66 32.974 -22.141 28.906 C-23.366 27.836 -24.616 26.793 -25.891 25.781 C-28.429 23.732 -29.1 23.012 -30.328 19.844 C-30.077 15.914 -28.944 14.637 -26.141 11.906 C-25.089 11.226 -24.037 10.545 -22.953 9.844 C-20.008 8.238 -20.008 8.238 -19.465 5.785 C-19.358 5.165 -19.251 4.545 -19.141 3.906 C-17.928 3.724 -17.928 3.724 -16.691 3.539 C-15.623 3.371 -14.554 3.204 -13.453 3.031 C-12.397 2.869 -11.342 2.706 -10.254 2.539 C-7.157 2.019 -7.157 2.019 -4.496 0.773 C-2.141 -0.094 -2.141 -0.094 0 0 Z " fill="#C5C6C5" transform="translate(380.140625,515.09375)"/>
<path d="M0 0 C1.32 0 2.64 0 4 0 C3.979 0.887 3.959 1.774 3.938 2.688 C4.635 6.031 4.635 6.031 6.859 7.266 C8.449 8.066 10.042 8.86 11.637 9.648 C15.648 11.943 19.11 15.408 20.633 19.844 C21.661 25.879 22.402 31.938 18.875 37.125 C9.508 43.234 -2.653 42.181 -13.438 42.188 C-14.588 42.2 -15.738 42.212 -16.924 42.225 C-34.477 42.254 -34.477 42.254 -41.125 38 C-44.814 34.066 -44.338 30.304 -44.27 25.105 C-43.694 18.476 -40.878 14.558 -36.062 10.125 C-33.149 7.721 -30.529 6.349 -27 5 C-25.656 2.983 -25.656 2.983 -25 1 C-22.525 1.495 -22.525 1.495 -20 2 C-20 3.65 -20 5.3 -20 7 C-16.044 8.978 -11.301 8.566 -7 8 C-3.777 5.566 -2.225 3.338 0 0 Z M-1.68 12.48 C-5.449 14.205 -8.003 14.37 -12.125 14.312 C-13.324 14.309 -14.523 14.305 -15.758 14.301 C-18.835 14.015 -20.358 13.445 -23 12 C-27.352 12.079 -29.39 12.487 -32.75 15.312 C-33.493 16.199 -34.235 17.086 -35 18 C-35.532 18.611 -36.065 19.222 -36.613 19.852 C-38.282 22.437 -38.433 24.007 -38.438 27.062 C-38.457 27.92 -38.476 28.777 -38.496 29.66 C-38.198 32.127 -38.198 32.127 -36.223 33.746 C-31.794 36.244 -27.441 36.16 -22.453 36.168 C-21.723 36.171 -20.993 36.175 -20.241 36.178 C-18.698 36.183 -17.155 36.185 -15.611 36.185 C-13.272 36.187 -10.933 36.206 -8.594 36.225 C-7.089 36.228 -5.583 36.23 -4.078 36.23 C-3.388 36.238 -2.698 36.245 -1.988 36.252 C4.074 36.224 9.272 34.909 15 33 C15.483 25.626 15.483 25.626 13.5 18.625 C10.39 15.359 7.052 12.982 3 11 C0.782 10.839 0.782 10.839 -1.68 12.48 Z " fill="#141314" transform="translate(248,317)"/>
<path d="M0 0 C2.062 0.438 2.062 0.438 4 1 C3.228 4.311 2.099 7.374 0.83 10.53 C-14.155 47.814 -22.398 86.038 -24.782 126.094 C-25 128 -25 128 -26 130 C-27.32 129.67 -28.64 129.34 -30 129 C-31.39 98.379 -25.462 67.499 -15.825 38.508 C-14.963 35.887 -14.132 33.257 -13.305 30.625 C-5.222 5.222 -5.222 5.222 0 0 Z " fill="#141314" transform="translate(256,389)"/>
<path d="M0 0 C-1 3 -1 3 -3.914 4.578 C-5.149 5.14 -6.386 5.697 -7.625 6.25 C-16.364 10.416 -21.698 15.101 -25.946 23.852 C-28.125 30.358 -27.714 37.243 -27.664 44.031 C-27.667 45.675 -27.672 47.318 -27.679 48.961 C-27.686 52.39 -27.675 55.819 -27.652 59.249 C-27.623 63.62 -27.64 67.989 -27.67 72.36 C-27.688 75.749 -27.682 79.138 -27.669 82.527 C-27.666 84.138 -27.67 85.748 -27.681 87.359 C-27.742 97.961 -26.941 106.428 -19.613 114.691 C-18.854 115.309 -18.095 115.926 -17.312 116.562 C-16.546 117.203 -15.779 117.844 -14.988 118.504 C-13.073 120.039 -13.073 120.039 -11 121 C-11 121.99 -11 122.98 -11 124 C-17.416 123.531 -21.423 120.818 -25.672 116.172 C-33.354 106.512 -33.463 97.181 -33.434 85.383 C-33.438 83.759 -33.443 82.135 -33.449 80.512 C-33.458 77.118 -33.456 73.724 -33.446 70.33 C-33.435 66.003 -33.455 61.678 -33.484 57.352 C-33.502 54.001 -33.502 50.65 -33.496 47.299 C-33.496 45.705 -33.502 44.111 -33.515 42.517 C-33.604 29.23 -31.594 18.839 -22 9 C-15.572 3.789 -8.503 -0.622 0 0 Z " fill="#141314" transform="translate(207,254)"/>
<path d="M0 0 C4.044 1.765 7.117 3.979 10 7.312 C11.614 11.65 11.863 15.59 10.309 19.93 C8.085 24.265 5.473 26.89 1 29 C-3.721 29.822 -7.026 29.496 -11.312 27.312 C-17.702 21.814 -17.702 21.814 -18.383 17.668 C-18.639 11.962 -17.952 8.368 -14 4 C-9.652 0.245 -5.674 -1.23 0 0 Z " fill="#FEFEFE" transform="translate(240,285)"/>
<path d="M0 0 C34.98 0 69.96 0 106 0 C106.495 1.98 106.495 1.98 107 4 C104.61 6.39 104.116 6.251 100.863 6.254 C99.563 6.262 99.563 6.262 98.237 6.271 C97.284 6.267 96.331 6.263 95.35 6.259 C93.847 6.264 93.847 6.264 92.314 6.269 C88.991 6.278 85.667 6.272 82.344 6.266 C80.042 6.267 77.74 6.269 75.439 6.271 C70.61 6.274 65.781 6.27 60.953 6.261 C54.751 6.249 48.55 6.256 42.349 6.268 C37.595 6.275 32.841 6.273 28.087 6.268 C25.8 6.266 23.513 6.268 21.226 6.273 C18.034 6.278 14.842 6.27 11.65 6.259 C10.698 6.263 9.745 6.267 8.763 6.271 C7.897 6.265 7.03 6.26 6.137 6.254 C5.005 6.253 5.005 6.253 3.849 6.252 C2 6 2 6 0 4 C0 2.68 0 1.36 0 0 Z " fill="#141314" transform="translate(325,243)"/>
<path d="M0 0 C4.034 1.795 7.156 3.998 10 7.375 C11.759 11.993 11.526 15.589 9.812 20.188 C7.21 24.226 4.559 26.48 0 28 C-5.871 28.587 -8.843 28.034 -13.555 24.484 C-16.536 21.423 -17.341 18.393 -17.5 14.188 C-17.413 9.291 -16.029 6.869 -12.703 3.375 C-8.59 0.054 -5.28 -0.616 0 0 Z " fill="#141314" transform="translate(664,625)"/>
<path d="M0 0 C4.433 2.137 7.125 4.417 9 9 C9.541 13.866 9.542 15.973 7.25 20.312 C4.369 23.753 2.254 25.582 -2 27 C-6.69 27.384 -9.064 27.459 -13.312 25.375 C-16.783 22.308 -18.567 19.676 -19.316 15.047 C-19.62 9.921 -18.357 7.009 -15 3 C-10.479 -1.11 -5.829 -0.76 0 0 Z " fill="#141314" transform="translate(389,417)"/>
<path d="M0 0 C4.557 2.411 8.046 5.144 10 10 C10.742 15.511 9.553 18.818 6.484 23.266 C3.342 26.938 0.174 27.853 -4.5 28.438 C-10.004 27.749 -12.81 25.378 -16.375 21.25 C-18.366 17.268 -18.864 14.366 -18 10 C-13.996 2.289 -8.784 -1.955 0 0 Z " fill="#141314" transform="translate(529,336)"/>
<path d="M0 0 C4.724 1.951 7.725 5.449 10 10 C10.55 15.72 9.644 18.569 6 23 C3.695 25.576 2.105 26.819 -1.332 27.383 C-7.029 27.639 -10.631 26.943 -15 23 C-18.127 19.352 -18.574 15.95 -18.426 11.285 C-17.713 7.458 -15.695 4.741 -13 2 C-8.742 -0.839 -4.996 -0.512 0 0 Z " fill="#141314" transform="translate(668,417)"/>
<path d="M0 0 C3.19 2.103 4.889 3.448 6.75 6.812 C7.432 11.466 7.366 15.433 5.438 19.75 C2.359 23.513 0.537 25.477 -4.52 26.086 C-12.234 26.394 -12.234 26.394 -15.75 23.625 C-19.68 19.204 -20.736 15.793 -20.566 9.805 C-19.87 5.419 -17.301 2.688 -14 -0.062 C-9.021 -2.099 -4.916 -1.796 0 0 Z " fill="#141314" transform="translate(531.25,690.1875)"/>
<path d="M0 0 C9.57 0 19.14 0 29 0 C29.33 0.99 29.66 1.98 30 3 C29.296 3.257 28.592 3.513 27.867 3.777 C19.133 7.164 11.706 11.768 4 17 C4.33 18.98 4.66 20.96 5 23 C5.882 23.009 5.882 23.009 6.782 23.018 C12.914 23.082 19.046 23.166 25.178 23.262 C27.465 23.296 29.752 23.324 32.04 23.346 C35.331 23.38 38.623 23.432 41.914 23.488 C42.933 23.495 43.952 23.501 45.002 23.508 C50.422 23.619 54.289 24.002 59 27 C59 27.66 59 28.32 59 29 C51.847 29.102 44.694 29.172 37.54 29.22 C35.107 29.24 32.675 29.267 30.242 29.302 C26.742 29.35 23.243 29.373 19.742 29.391 C18.658 29.411 17.573 29.432 16.456 29.453 C10.318 29.455 6.626 29.185 2 25 C-0.202 21.697 -0.24 20.725 -0.195 16.895 C-0.19 16.009 -0.185 15.123 -0.18 14.21 C-0.162 13.089 -0.144 11.968 -0.125 10.812 C-0.084 7.244 -0.043 3.676 0 0 Z " fill="#DBDCDC" transform="translate(380,923)"/>
<path d="M0 0 C1.938 0.141 3.875 0.288 5.812 0.438 C7.431 0.559 7.431 0.559 9.082 0.684 C12 1 12 1 15 2 C17.733 2.228 20.45 2.417 23.188 2.562 C23.937 2.606 24.687 2.649 25.459 2.693 C27.306 2.799 29.153 2.9 31 3 C31 3.33 31 3.66 31 4 C26.545 4.495 26.545 4.495 22 5 C22 5.66 22 6.32 22 7 C22.66 7.33 23.32 7.66 24 8 C23.109 8.329 23.109 8.329 22.199 8.664 C10.759 12.938 10.759 12.938 1 20 C0.667 22.5 0.667 22.5 1 25 C4.022 28.022 7.462 27.298 11.516 27.309 C13.259 27.334 15.003 27.359 16.746 27.385 C19.496 27.413 22.245 27.437 24.995 27.456 C27.648 27.478 30.3 27.517 32.953 27.559 C33.769 27.559 34.585 27.559 35.425 27.559 C40.359 27.644 43.669 28.381 48 31 C48 31.66 48 32.32 48 33 C42.004 33.099 36.009 33.172 30.013 33.22 C27.975 33.24 25.937 33.267 23.9 33.302 C20.963 33.351 18.027 33.373 15.09 33.391 C14.185 33.411 13.281 33.432 12.349 33.453 C6.381 33.455 2.881 32.497 -2 29 C-6.002 20.995 -2.493 7.969 0 0 Z " fill="#DBDCDC" transform="translate(288,919)"/>
<path d="M0 0 C1.226 0.001 1.226 0.001 2.478 0.003 C3.881 0.001 3.881 0.001 5.312 -0.001 C6.346 0.002 7.381 0.006 8.446 0.01 C9.529 0.009 10.612 0.009 11.728 0.009 C15.326 0.01 18.924 0.018 22.522 0.025 C25.01 0.027 27.497 0.029 29.984 0.03 C35.874 0.033 41.763 0.041 47.653 0.051 C55.014 0.063 62.374 0.069 69.735 0.074 C82.871 0.085 96.007 0.102 109.143 0.123 C109.143 1.443 109.143 2.763 109.143 4.123 C108.143 5.123 108.143 5.123 106.318 5.246 C105.114 5.245 105.114 5.245 103.885 5.243 C102.507 5.245 102.507 5.245 101.102 5.247 C99.578 5.242 99.578 5.242 98.024 5.237 C96.961 5.237 95.897 5.237 94.802 5.237 C91.269 5.236 87.735 5.229 84.202 5.221 C81.76 5.219 79.317 5.217 76.875 5.216 C70.432 5.213 63.989 5.203 57.547 5.192 C50.978 5.182 44.409 5.177 37.841 5.172 C24.942 5.161 12.043 5.144 -0.857 5.123 C-1.517 3.803 -2.177 2.483 -2.857 1.123 C-1.857 0.123 -1.857 0.123 0 0 Z " fill="#030304" transform="translate(326.85657596588135,288.8769521713257)"/>
<path d="M0 0 C0.931 0.004 1.863 0.007 2.823 0.011 C3.798 0.011 4.774 0.011 5.779 0.01 C9.02 0.011 12.261 0.019 15.502 0.027 C17.743 0.029 19.983 0.03 22.224 0.031 C28.134 0.035 34.044 0.045 39.954 0.056 C45.98 0.066 52.006 0.071 58.031 0.076 C69.864 0.086 81.697 0.103 93.529 0.124 C94.092 2.062 94.092 2.062 94.529 4.124 C92.586 6.067 89.644 5.245 87.059 5.249 C86.127 5.245 85.196 5.242 84.236 5.238 C83.261 5.238 82.285 5.238 81.28 5.238 C78.039 5.238 74.798 5.23 71.557 5.222 C69.316 5.22 67.076 5.219 64.835 5.218 C58.925 5.214 53.015 5.204 47.105 5.193 C41.079 5.183 35.053 5.178 29.027 5.173 C17.195 5.163 5.362 5.145 -6.471 5.124 C-7.033 3.187 -7.033 3.187 -7.471 1.124 C-5.528 -0.819 -2.586 0.004 0 0 Z " fill="#030304" transform="translate(332.4705505371094,311.8755798339844)"/>
<path d="M0 0 C0.66 0 1.32 0 2 0 C3.67 3.34 3.129 7.093 3.114 10.764 C3.114 11.672 3.114 12.579 3.114 13.514 C3.113 16.522 3.105 19.531 3.098 22.539 C3.096 24.621 3.094 26.704 3.093 28.786 C3.09 34.273 3.08 39.761 3.069 45.249 C3.058 50.845 3.054 56.442 3.049 62.039 C3.038 73.026 3.021 84.013 3 95 C1.35 95 -0.3 95 -2 95 C-2.046 82.909 -2.082 70.818 -2.104 58.727 C-2.114 53.113 -2.128 47.499 -2.151 41.885 C-2.173 36.471 -2.185 31.057 -2.19 25.643 C-2.193 23.573 -2.201 21.504 -2.211 19.435 C-2.226 16.544 -2.228 13.654 -2.227 10.764 C-2.234 9.902 -2.241 9.039 -2.249 8.151 C-2.228 2.228 -2.228 2.228 0 0 Z " fill="#030304" transform="translate(524,220)"/>
<path d="M0 0 C6.883 -0.81 11.266 1.25 17.406 4.27 C21.238 6.115 25.112 7.742 29.062 9.312 C29.694 9.567 30.325 9.821 30.975 10.083 C40.611 13.906 47.636 13.557 57.25 10 C58.816 9.432 60.383 8.869 61.953 8.312 C62.635 8.061 63.318 7.81 64.021 7.551 C66 7 66 7 70 7 C69.812 9.336 69.812 9.336 69 12 C65.629 14.276 61.789 15.547 58 17 C57.238 17.324 56.476 17.647 55.691 17.98 C42.326 23.204 31.64 18.333 19.26 12.961 C16.439 11.761 13.579 10.706 10.688 9.688 C6.713 8.277 2.854 6.713 -1 5 C-0.67 3.35 -0.34 1.7 0 0 Z " fill="#141314" transform="translate(704,313)"/>
<path d="M0 0 C6.586 0.217 12.72 3.326 18.637 5.977 C19.247 6.249 19.857 6.522 20.486 6.802 C22.231 7.589 23.968 8.395 25.703 9.203 C34.687 12.337 42.114 8.433 50.525 5.219 C56.329 3.082 60.873 1.903 67.062 2.375 C66.875 4.227 66.875 4.227 66.062 6.375 C63.938 7.648 63.938 7.648 61.062 8.75 C59.986 9.164 58.91 9.578 57.801 10.004 C56.567 10.456 55.334 10.909 54.062 11.375 C52.618 11.926 51.174 12.476 49.73 13.027 C48.238 13.583 46.744 14.136 45.25 14.688 C44.546 14.954 43.841 15.221 43.115 15.496 C34.194 18.693 27.898 16.92 19.312 13.562 C17.444 12.843 15.575 12.128 13.703 11.418 C12.782 11.068 11.861 10.718 10.912 10.357 C7.095 9.041 3.212 8.129 -0.731 7.275 C-2.938 6.375 -2.938 6.375 -4.245 4.282 C-4.474 3.653 -4.702 3.023 -4.938 2.375 C-2.938 0.375 -2.938 0.375 0 0 Z " fill="#141314" transform="translate(706.9375,334.625)"/>
<path d="M0 0 C8.7 -0.635 14.321 2.003 22.008 5.801 C30.432 9.726 37.55 10.461 46.387 7.285 C48.161 6.563 49.928 5.822 51.688 5.062 C57.881 2.451 63.264 0.494 70 0 C70.495 1.98 70.495 1.98 71 4 C64.353 6.798 57.688 9.552 51 12.25 C50.366 12.508 49.731 12.766 49.078 13.032 C38.367 17.332 30.096 16.664 19.5 12.25 C18.627 11.902 17.755 11.554 16.855 11.195 C14.231 10.145 11.616 9.073 9 8 C7.115 7.243 5.23 6.488 3.344 5.734 C2.094 5.235 2.094 5.235 0.818 4.726 C0.218 4.486 -0.382 4.247 -1 4 C-0.67 2.68 -0.34 1.36 0 0 Z " fill="#141314" transform="translate(703,346)"/>
<path d="M0 0 C5.86 0.12 10.52 1.907 15.832 4.242 C16.699 4.607 17.566 4.972 18.459 5.348 C20.818 6.342 23.17 7.35 25.52 8.367 C35.19 12.542 43.929 9.64 53.52 6.367 C54.24 5.996 54.961 5.625 55.703 5.242 C58.576 3.858 61.391 4.247 64.52 4.367 C64.277 6.246 64.277 6.246 63.52 8.367 C61.762 9.457 61.762 9.457 59.395 10.305 C58.496 10.628 57.598 10.952 56.672 11.285 C55.632 11.642 54.591 11.999 53.52 12.367 C52.304 12.817 51.088 13.267 49.836 13.73 C48.544 14.194 47.251 14.657 45.957 15.117 C44.759 15.545 43.562 15.973 42.328 16.414 C33.085 18.727 26.755 16.715 18.145 12.992 C11.31 10.068 5.141 7.844 -2.288 7.033 C-4.48 6.367 -4.48 6.367 -5.787 4.307 C-6.016 3.667 -6.245 3.027 -6.48 2.367 C-4.053 -0.06 -3.34 0.048 0 0 Z " fill="#141314" transform="translate(709.48046875,324.6328125)"/>
<path d="M0 0 C3.338 1.125 6.387 2.675 9.5 4.312 C23.825 11.639 31.585 12.905 47.082 8.035 C49.937 7.095 49.937 7.095 52.246 5.848 C54 5 54 5 56.25 5.375 C56.827 5.581 57.405 5.788 58 6 C58 7.32 58 8.64 58 10 C54.284 11.495 50.566 12.986 46.844 14.465 C44.709 15.313 42.586 16.175 40.469 17.066 C33.303 20.009 27.656 19.289 20.625 16.438 C19.944 16.172 19.263 15.907 18.561 15.634 C12.62 13.303 6.72 10.859 0.848 8.361 C-3.381 6.581 -7.563 5.177 -12 4 C-11.67 3.01 -11.34 2.02 -11 1 C-7.492 -0.754 -3.835 -0.46 0 0 Z " fill="#141314" transform="translate(717,304)"/>
<path d="M0 0 C3.149 0.59 4.932 1.507 7.32 3.625 C7.933 4.162 8.546 4.699 9.177 5.253 C9.82 5.829 10.463 6.406 11.125 7 C11.794 7.589 12.462 8.179 13.151 8.786 C17.672 12.78 22.138 16.834 26.605 20.887 C30.086 23.958 33.696 26.862 37.305 29.781 C41.305 33.074 45.161 36.521 49 40 C52.402 38.386 55.103 36.414 58 34 C58.99 34.495 58.99 34.495 60 35 C59.553 35.461 59.105 35.923 58.645 36.398 C53.92 41.496 50.818 46.663 48 53 C47.67 53 47.34 53 47 53 C46.944 51.198 46.944 51.198 46.887 49.359 C46.34 45.081 44.928 43.317 41.646 40.64 C41.041 40.181 40.436 39.723 39.812 39.25 C38.531 38.217 37.25 37.183 35.969 36.148 C35.31 35.629 34.651 35.109 33.973 34.573 C30.852 32.085 27.835 29.481 24.812 26.875 C24.233 26.379 23.653 25.883 23.055 25.371 C18.452 21.423 13.958 17.369 9.488 13.27 C6.04 10.124 2.529 7.054 -1 4 C-0.67 2.68 -0.34 1.36 0 0 Z " fill="#141314" transform="translate(302,367)"/>
<path d="M0 0 C1.32 0.33 2.64 0.66 4 1 C3.34 3.31 2.68 5.62 2 8 C5.545 6.602 5.545 6.602 9 5 C9 6.32 9 7.64 9 9 C11.31 9 13.62 9 16 9 C16 11 16 11 14.5 12.625 C14.005 13.079 13.51 13.533 13 14 C15.31 14 17.62 14 20 14 C20 14.99 20 15.98 20 17 C19.01 17 18.02 17 17 17 C17.33 17.66 17.66 18.32 18 19 C20.527 19.656 20.527 19.656 23 20 C22.691 20.598 22.381 21.196 22.062 21.812 C20.898 24.09 20.898 24.09 20 27 C17.608 25.937 15.888 24.898 13.938 23.125 C7.847 18.719 0.435 16.661 -7 16 C-6.578 15.18 -6.157 14.36 -5.723 13.516 C-4.901 11.899 -4.901 11.899 -4.062 10.25 C-3.517 9.183 -2.972 8.115 -2.41 7.016 C-1.288 4.616 -0.495 2.581 0 0 Z " fill="#C5C6C5" transform="translate(456,568)"/>
<path d="M0 0 C0.99 0.495 0.99 0.495 2 1 C2.731 3.314 3.401 5.648 4 8 C4.882 8.009 4.882 8.009 5.782 8.018 C11.914 8.082 18.046 8.166 24.178 8.262 C26.465 8.296 28.752 8.324 31.04 8.346 C34.331 8.38 37.623 8.432 40.914 8.488 C41.933 8.495 42.952 8.501 44.002 8.508 C49.422 8.619 53.289 9.002 58 12 C58 12.66 58 13.32 58 14 C50.847 14.102 43.694 14.172 36.54 14.22 C34.107 14.24 31.675 14.267 29.242 14.302 C25.742 14.35 22.243 14.373 18.742 14.391 C17.658 14.411 16.573 14.432 15.456 14.453 C9.303 14.455 5.692 14.107 1 10 C0 9 0 9 -0.098 6.934 C-0.086 6.11 -0.074 5.286 -0.062 4.438 C-0.053 3.611 -0.044 2.785 -0.035 1.934 C-0.024 1.296 -0.012 0.657 0 0 Z " fill="#DBDCDC" transform="translate(381,938)"/>
<path d="M0 0 C1.689 2.702 2.188 5.008 2.5 8.125 C2.6 12.007 2.6 12.007 5 14 C7.868 14.21 10.646 14.301 13.516 14.309 C15.259 14.334 17.003 14.359 18.746 14.385 C21.496 14.413 24.245 14.437 26.995 14.456 C29.648 14.478 32.3 14.517 34.953 14.559 C35.769 14.559 36.585 14.559 37.425 14.559 C42.359 14.644 45.669 15.381 50 18 C50 18.66 50 19.32 50 20 C44.004 20.099 38.009 20.172 32.013 20.22 C29.975 20.24 27.937 20.267 25.9 20.302 C22.963 20.351 20.027 20.373 17.09 20.391 C16.185 20.411 15.281 20.432 14.349 20.453 C8.381 20.455 4.881 19.497 0 16 C-1.298 13.405 -1.133 11.458 -1.125 8.562 C-1.128 7.594 -1.13 6.626 -1.133 5.629 C-1 3 -1 3 0 0 Z " fill="#DBDCDC" transform="translate(286,932)"/>
<path d="M0 0 C7.648 0.968 13.645 6.96 18.312 12.812 C24.115 21.277 26.898 28.685 26 39 C24.68 39 23.36 39 22 39 C21.841 38.166 21.683 37.332 21.52 36.473 C19.111 24.856 14.689 14.558 4.773 7.391 C2.876 6.197 0.971 5.065 -1 4 C-0.67 2.68 -0.34 1.36 0 0 Z " fill="#141314" transform="translate(472,633)"/>
<path d="M0 0 C3.387 2.45 4.787 3.864 5.562 8 C4.835 11.883 4.06 13.462 1 16 C-2.146 16.716 -4.854 16.709 -8 16 C-10.625 13.938 -10.625 13.938 -12 11 C-12 7.08 -11.552 4.828 -9.375 1.562 C-5.998 -0.659 -3.965 -0.626 0 0 Z " fill="#F5F5F6" transform="translate(664,631)"/>
<path d="M0 0 C4.107 0.856 5.554 2.244 8 5.625 C8.625 9.125 8.625 9.125 8 12.625 C5.554 16.006 4.107 17.394 0 18.25 C-4.107 17.394 -5.554 16.006 -8 12.625 C-8.625 9.125 -8.625 9.125 -8 5.625 C-5.554 2.244 -4.107 0.856 0 0 Z " fill="#F5F5F6" transform="translate(664,421.375)"/>
<path d="M0 0 C4.155 0.656 5.844 1.35 8.562 4.562 C9.188 8 9.188 8 8.562 11.562 C5.947 15.288 4.502 16.398 0 17.188 C-3.438 16.562 -3.438 16.562 -5.875 14.438 C-7.718 11.047 -8.071 9.364 -7.438 5.562 C-5.348 1.719 -4.362 0.714 0 0 Z " fill="#F5F5F6" transform="translate(524.4375,341.4375)"/>
<path d="M0 0 C3.713 1.148 5.269 1.853 7.438 5.062 C8 8 8 8 7.438 11.062 C5.375 13.938 5.375 13.938 2.438 16.062 C-1.553 16.693 -3.579 16.693 -7 14.5 C-9.193 11.079 -9.193 9.053 -8.562 5.062 C-5.908 1.201 -4.74 0.083 0 0 Z " fill="#FEFEFE" transform="translate(384.5625,421.9375)"/>
<path d="M0 0 C3 2.062 3 2.062 5 5 C5.151 9.312 4.705 11.215 1.812 14.438 C-1.54 16.3 -3.229 16.722 -7 16 C-10.162 13.254 -10.917 11.592 -11.5 7.438 C-11 4 -11 4 -9.438 1.562 C-6.017 -0.63 -3.99 -0.63 0 0 Z " fill="#FEFEFE" transform="translate(528,695)"/>
<path d="M0 0 C2.355 0.133 2.355 0.133 5 1 C9.802 6.645 11.896 13.076 11.465 20.414 C10.755 24.364 9.414 27.779 7 31 C3.274 33.484 1.413 33.38 -3 33 C-5.938 31.75 -5.938 31.75 -8 30 C-8 28.68 -8 27.36 -8 26 C-2.06 26.99 -2.06 26.99 4 28 C6.463 21.997 7.309 16.401 4.949 10.27 C3.248 6.792 1.75 3.75 -1 1 C-0.67 0.67 -0.34 0.34 0 0 Z " fill="#141314" transform="translate(380,513)"/>
<path d="M0 0 C1.65 0 3.3 0 5 0 C5 10.56 5 21.12 5 32 C3.35 32 1.7 32 0 32 C0 21.44 0 10.88 0 0 Z " fill="#141314" transform="translate(522,635)"/>
<path d="M0 0 C9.24 0 18.48 0 28 0 C24.372 3.628 20.938 6.794 17 10 C14.476 8.918 13.023 8.026 11.188 5.938 C8.273 3.356 5.79 3.491 2 3 C1.34 2.01 0.68 1.02 0 0 Z " fill="#F5F5F6" transform="translate(681,399)"/>
<path d="M0 0 C9.57 0 19.14 0 29 0 C29.33 0.99 29.66 1.98 30 3 C27.03 3.66 24.06 4.32 21 5 C21.33 4.01 21.66 3.02 22 2 C15.4 2 8.8 2 2 2 C2 5.96 2 9.92 2 14 C3.32 14.33 4.64 14.66 6 15 C5.01 15.66 4.02 16.32 3 17 C2.67 16.67 2.34 16.34 2 16 C1.67 17.98 1.34 19.96 1 22 C0.67 22 0.34 22 0 22 C0 14.74 0 7.48 0 0 Z " fill="#DBDCDC" transform="translate(380,923)"/>
<path d="M0 0 C-0.267 3.203 -0.833 4.794 -2.875 7.312 C-7.437 9.776 -11.909 9.678 -17 9 C-17.99 8.34 -18.98 7.68 -20 7 C-19.67 5.35 -19.34 3.7 -19 2 C-17.662 2.035 -17.662 2.035 -16.297 2.07 C-15.126 2.088 -13.956 2.106 -12.75 2.125 C-11.59 2.148 -10.43 2.171 -9.234 2.195 C-5.745 1.985 -3.295 0 0 0 Z " fill="#F5F5F6" transform="translate(247,317)"/>
<path d="M0 0 C0.495 0.99 0.495 0.99 1 2 C0.432 2.11 -0.137 2.219 -0.723 2.332 C-5.816 3.378 -10.219 4.914 -15 7 C-25.96 10.683 -33.65 8.904 -44 4 C-43.34 3.34 -42.68 2.68 -42 2 C-39.251 2.305 -36.992 3.003 -34.438 4.062 C-24.904 6.662 -17.187 4.809 -8.344 1.047 C-3.274 -1.091 -3.274 -1.091 0 0 Z " fill="#DBDCDC" transform="translate(772,327)"/>
<path d="M0 0 C0.324 3.559 0.388 5.418 -1.625 8.438 C-4 10 -4 10 -7.125 9.938 C-10 9 -10 9 -12 6 C-12.125 3.312 -12.125 3.312 -12 1 C-11.237 0.856 -10.474 0.711 -9.688 0.562 C-2.819 -0.875 -2.819 -0.875 0 0 Z " fill="#141314" transform="translate(465,240)"/>
<path d="M0 0 C1.65 0 3.3 0 5 0 C5 3.96 5 7.92 5 12 C3.35 12 1.7 12 0 12 C0 8.04 0 4.08 0 0 Z " fill="#202021" transform="translate(522,386)"/>
<path d="M0 0 C7.712 0.328 13.669 4.199 18.875 9.812 C21.465 13.698 22.776 17.523 24 22 C21.58 19.759 19.921 17.423 18.188 14.625 C13.442 7.449 7.831 4.115 0 1 C0 0.67 0 0.34 0 0 Z " fill="#B4B3BA" transform="translate(268,255)"/>
<path d="M0 0 C3.96 0.33 7.92 0.66 12 1 C8.009 2.996 6.3 3.195 2 3 C1.974 3.603 1.948 4.207 1.922 4.828 C1.453 11.437 1.453 11.437 -1.062 14.562 C-1.702 15.037 -2.341 15.511 -3 16 C-2.52 10.431 -1.701 5.329 0 0 Z " fill="#C5C6C5" transform="translate(288,919)"/>
<path d="M0 0 C0.33 0.66 0.66 1.32 1 2 C0.432 2.11 -0.137 2.219 -0.723 2.332 C-4.546 3.117 -8.128 3.935 -11.688 5.562 C-17.486 8.079 -21.81 8.114 -28 7 C-28 6.67 -28 6.34 -28 6 C-27.285 5.914 -26.569 5.827 -25.832 5.738 C-18.62 4.721 -12.405 2.804 -5.715 -0.074 C-3 -1 -3 -1 0 0 Z " fill="#C5C6C5" transform="translate(772,327)"/>
<path d="M0 0 C8.91 0 17.82 0 27 0 C27.33 0.99 27.66 1.98 28 3 C25.69 3.66 23.38 4.32 21 5 C21.33 3.68 21.66 2.36 22 1 C14.74 1 7.48 1 0 1 C0 0.67 0 0.34 0 0 Z " fill="#C5C6C5" transform="translate(382,923)"/>
<path d="M0 0 C0.66 0.66 1.32 1.32 2 2 C0.043 2.67 -1.916 3.336 -3.875 4 C-4.966 4.371 -6.056 4.743 -7.18 5.125 C-10 6 -10 6 -12 6 C-12 4.68 -12 3.36 -12 2 C-10.567 1.468 -9.128 0.95 -7.688 0.438 C-6.487 0.002 -6.487 0.002 -5.262 -0.441 C-3 -1 -3 -1 0 0 Z " fill="#DBDCDC" transform="translate(767,345)"/>
<path d="M0 0 C-0.99 0.66 -1.98 1.32 -3 2 C-3 2.99 -3 3.98 -3 5 C-5.75 5.688 -5.75 5.688 -9 6 C-11.203 4.52 -11.203 4.52 -13 3 C-11.401 2.301 -9.795 1.616 -8.188 0.938 C-7.294 0.555 -6.401 0.172 -5.48 -0.223 C-3 -1 -3 -1 0 0 Z " fill="#DBDCDC" transform="translate(773,316)"/>
<path d="M0 0 C1.65 0 3.3 0 5 0 C5 1.32 5 2.64 5 4 C1.535 5.485 1.535 5.485 -2 7 C-2 6.01 -2 5.02 -2 4 C-1.34 3.67 -0.68 3.34 0 3 C0 2.01 0 1.02 0 0 Z " fill="#E4E6E6" transform="translate(397,925)"/>
<path d="M0 0 C3.96 0.33 7.92 0.66 12 1 C8.389 2.806 7.455 3.249 3.75 3.125 C1.894 3.063 1.894 3.063 0 3 C-0.33 3.99 -0.66 4.98 -1 6 C-0.67 4.02 -0.34 2.04 0 0 Z " fill="#B4B3BA" transform="translate(288,919)"/>
<path d="M0 0 C-5.733 1.573 -10.157 2.243 -16 1 C-16 0.67 -16 0.34 -16 0 C-14.087 -0.391 -12.169 -0.762 -10.25 -1.125 C-9.183 -1.334 -8.115 -1.543 -7.016 -1.758 C-3.863 -2.011 -2.6 -1.704 0 0 Z " fill="#A1A1A1" transform="translate(760,333)"/>
<path d="M0 0 C1.32 0.33 2.64 0.66 4 1 C1.69 2.65 -0.62 4.3 -3 6 C-3.33 5.01 -3.66 4.02 -4 3 C-3.01 3 -2.02 3 -1 3 C-0.67 2.01 -0.34 1.02 0 0 Z " fill="#DBDCDC" transform="translate(291,933)"/>
<path d="M0 0 C1.945 2.918 2.453 4.625 3 8 C1.062 7.312 1.062 7.312 -1 6 C-1.75 3.375 -1.75 3.375 -2 1 C-1.34 0.67 -0.68 0.34 0 0 Z " fill="#202021" transform="translate(431,548)"/>
<path d="M0 0 C0.99 0.33 1.98 0.66 3 1 C0.147 3.325 -2.541 4.751 -6 6 C-6 5.34 -6 4.68 -6 4 C-4.68 3.67 -3.36 3.34 -2 3 C-2 2.34 -2 1.68 -2 1 C-1.34 0.67 -0.68 0.34 0 0 Z " fill="#C5C6C5" transform="translate(301,928)"/>
</svg>