<svg xmlns="http://www.w3.org/2000/svg" width="200" height="160" viewBox="0 0 200 160">
  <!-- Building -->
  <rect x="40" y="30" width="120" height="110" rx="2" fill="#D1D5DB" />

  <!-- Top floor windows -->
  <rect x="55" y="40" width="20" height="15" rx="1" fill="#F9FAFB" />
  <rect x="90" y="40" width="20" height="15" rx="1" fill="#F9FAFB" />
  <rect x="125" y="40" width="20" height="15" rx="1" fill="#F9FAFB" />

  <!-- Middle floor windows -->
  <rect x="55" y="65" width="20" height="15" rx="1" fill="#F9FAFB" />
  <rect x="90" y="65" width="20" height="15" rx="1" fill="#F9FAFB" />
  <rect x="125" y="65" width="20" height="15" rx="1" fill="#F9FAFB" />

  <!-- Bottom floor windows -->
  <rect x="55" y="90" width="20" height="15" rx="1" fill="#F9FAFB" />
  <rect x="90" y="90" width="20" height="15" rx="1" fill="#F9FAFB" />
  <rect x="125" y="90" width="20" height="15" rx="1" fill="#F9FAFB" />

  <!-- Door -->
  <rect x="90" y="115" width="20" height="25" rx="1" fill="#F9FAFB" />
  <circle cx="95" cy="125" r="2" fill="#D1D5DB" />

  <!-- Company sign -->
  <rect x="75" y="20" width="50" height="10" rx="2" fill="#F9FAFB" />
</svg>