<svg width="560" height="488" viewBox="0 0 560 488" fill="none" xmlns="http://www.w3.org/2000/svg">
<path d="M389.907 364.23L491.824 449.002H486.071L368.376 364.23H389.907Z" fill="#C7C7C7"/>
<path d="M380.344 364.23L430.694 449.002H424.958L363.226 364.23H380.344Z" fill="#C7C7C7"/>
<path d="M355.654 364.23L305.305 449.002H311.04L372.755 364.23H355.654Z" fill="#C7C7C7"/>
<path d="M346.847 364.23L244.948 449.002H250.683L368.378 364.23H346.847Z" fill="#C7C7C7"/>
<path d="M176.774 333.133V308.335L316.705 302.418L390.632 98.8093H560L500.067 333.133L356.907 374.609H347.924L176.774 333.133Z" fill="#616161"/>
<path opacity="0.1" d="M560 98.8093H540.623L478.184 312.414L351.524 349.428L176.774 308.335V333.133L347.924 374.609H356.907L500.067 333.133L560 98.8093Z" fill="black"/>
<path d="M252.961 487.564C257.232 485.871 353.29 404.686 355.055 399.206C355.743 397.13 345.102 382 331.724 364.103C328.848 360.243 325.83 356.274 322.759 352.25C302.852 326.141 281.128 298.922 281.128 298.922L216.712 353.015L260.127 404.85L269.656 416.229C269.656 416.229 246.343 464.296 245.037 470.523C243.732 476.749 248.691 489.239 252.961 487.564Z" fill="white"/>
<path d="M252.959 487.564C257.229 485.871 353.287 404.686 355.052 399.206C355.882 396.657 339.981 374.863 322.756 352.25L260.124 404.886L269.654 416.266C269.654 416.266 246.341 464.332 245.035 470.559C243.729 476.786 248.688 489.239 252.959 487.564Z" fill="#EBEBEB"/>
<path d="M252.961 487.565C257.232 485.871 353.29 404.686 355.055 399.206C355.743 397.13 345.102 382 331.724 364.103L269.656 416.266C269.656 416.266 246.343 464.332 245.037 470.559C243.732 476.786 248.691 489.24 252.961 487.565Z" fill="#C8C8C8"/>
<path d="M251.177 482.429C267.061 468.41 331.882 413.407 348.524 400.789C348.647 400.68 348.718 400.789 348.524 400.88C333.276 415.136 267.978 469.539 251.407 482.703C251.054 482.976 250.86 482.721 251.177 482.429Z" fill="#0B0B0B"/>
<path d="M248.391 461.765C250.142 460.205 252.188 459.037 254.4 458.335C256.611 457.633 258.94 457.412 261.239 457.687C265.362 458.155 269.153 460.241 271.827 463.513C271.827 463.604 271.722 463.768 271.633 463.677C268.477 460.844 264.513 459.147 260.339 458.842C256.166 458.537 252.01 459.639 248.497 461.984C248.483 461.997 248.466 462.007 248.447 462.013C248.429 462.019 248.409 462.02 248.391 462.016C248.372 462.013 248.354 462.005 248.338 461.993C248.323 461.981 248.31 461.966 248.302 461.948C248.293 461.93 248.289 461.91 248.289 461.891C248.289 461.871 248.293 461.851 248.302 461.833C248.311 461.816 248.323 461.8 248.339 461.789C248.354 461.777 248.372 461.769 248.391 461.765Z" fill="#0B0B0B"/>
<path d="M264.713 423.203C271.084 417.649 280.42 413.68 288.75 415.738C289.068 415.829 288.944 416.284 288.75 416.357C280.695 418.063 272.843 420.663 265.331 424.113C265.214 424.197 265.069 424.231 264.929 424.205C264.788 424.179 264.663 424.097 264.581 423.976C264.499 423.856 264.467 423.706 264.492 423.561C264.517 423.416 264.596 423.287 264.713 423.203Z" fill="#0B0B0B"/>
<path d="M261.326 429.484C267.697 424.022 277.033 419.962 285.363 422.019C285.68 422.019 285.575 422.566 285.363 422.638C277.309 424.347 269.457 426.948 261.944 430.395C261.827 430.479 261.682 430.512 261.541 430.487C261.401 430.461 261.276 430.379 261.194 430.258C261.112 430.137 261.08 429.988 261.105 429.843C261.129 429.698 261.209 429.569 261.326 429.484Z" fill="#0B0B0B"/>
<path d="M257.938 435.62C264.309 430.067 273.645 426.097 281.974 428.155C282.292 428.155 282.186 428.701 281.974 428.774C273.92 430.483 266.069 433.083 258.556 436.53C258.439 436.615 258.294 436.648 258.153 436.622C258.012 436.596 257.887 436.514 257.806 436.393C257.724 436.273 257.692 436.123 257.716 435.978C257.741 435.833 257.821 435.704 257.938 435.62Z" fill="#0B0B0B"/>
<path d="M254.55 441.811C260.921 436.349 270.256 432.307 278.586 434.364C278.904 434.364 278.798 434.911 278.586 434.965C270.534 436.689 262.683 439.295 255.167 442.74C255.048 442.824 254.901 442.856 254.759 442.829C254.616 442.802 254.49 442.717 254.409 442.594C254.327 442.471 254.295 442.319 254.322 442.172C254.348 442.025 254.43 441.895 254.55 441.811Z" fill="#0B0B0B"/>
<path d="M331.883 388.463C339.137 382.382 348.314 393.926 341.06 400.098C333.807 406.27 324.63 394.563 331.883 388.463Z" fill="white"/>
<path d="M243.659 411.277C244.701 405.724 250.983 404.978 255.289 406.179C262.677 408.362 269.374 412.52 274.702 418.232C274.731 418.25 274.756 418.275 274.773 418.306C274.79 418.336 274.798 418.37 274.798 418.405C274.798 418.44 274.79 418.475 274.773 418.505C274.756 418.536 274.731 418.561 274.702 418.578C274.777 418.725 274.817 418.888 274.819 419.054C274.821 419.219 274.786 419.383 274.715 419.532C274.645 419.681 274.542 419.811 274.414 419.911C274.286 420.011 274.137 420.078 273.979 420.108C266.778 420.709 259.172 422.274 252.024 420.581C247.736 419.671 242.671 416.594 243.659 411.277ZM262.79 418.724C266.319 418.506 269.849 418.123 273.379 418.05C269.673 415.59 265.851 413.324 261.925 411.259C260.004 410.292 258.023 409.459 255.995 408.765C252.854 407.763 242.124 407.545 247.171 415.319C250.048 419.689 258.572 419.034 262.79 418.797V418.724Z" fill="#0B0B0B"/>
<path d="M292.687 407.235C287.781 412.861 280.686 416.102 274.474 419.98C274.329 420.05 274.171 420.084 274.012 420.079C273.852 420.075 273.696 420.032 273.555 419.954C273.415 419.876 273.294 419.766 273.202 419.631C273.11 419.496 273.05 419.342 273.027 419.179C272.886 419.179 272.762 419.088 272.797 418.906C273.954 411.086 277.089 403.719 281.886 397.549C284.745 393.907 290.287 390.885 294.24 394.8C298.193 398.714 295.493 403.994 292.687 407.235ZM293.587 400.152C293.41 390.758 284.763 397.312 282.751 400.007C281.457 401.782 280.278 403.643 279.221 405.578C277.033 409.547 275.445 413.753 273.644 417.922C276.592 415.865 279.68 414.099 282.698 412.169C286.28 409.857 293.604 405.323 293.516 400.152H293.587Z" fill="#0B0B0B"/>
<path d="M149.737 251.365C154.608 286.177 239.054 385.769 248.813 397.185C250.26 398.86 251.037 399.789 251.037 399.789L319.282 344.312L318.47 343.256L256.843 262.089L437.77 258.721L368.414 204.464C368.414 204.464 362.89 207.851 351.277 206.285C311.287 200.823 221.106 188.533 199.875 189.68C172.591 191.173 145.361 219.43 149.737 251.365Z" fill="#0B0B0B"/>
<path d="M234.801 231.902C237.082 234.494 239.204 237.23 241.154 240.095C243.325 242.972 245.548 245.812 247.719 248.689V248.78C247.331 247.924 246.96 247.087 246.554 246.249C245.16 243.372 244.048 240.405 242.425 237.656C242.414 237.639 242.407 237.62 242.404 237.6C242.4 237.581 242.4 237.561 242.405 237.541C242.409 237.522 242.416 237.504 242.427 237.487C242.438 237.471 242.452 237.457 242.469 237.446C242.485 237.435 242.503 237.428 242.522 237.424C242.541 237.421 242.56 237.421 242.579 237.425C242.598 237.43 242.616 237.438 242.632 237.449C242.648 237.46 242.661 237.475 242.672 237.492C244.348 240.223 246.201 242.808 247.719 245.667C248.39 247.014 249.043 248.379 249.643 249.763C249.96 250.528 250.296 251.293 250.596 252.075C250.76 252.434 250.896 252.805 251.001 253.186C251.99 254.515 252.943 255.863 253.878 257.228C255.961 260.25 257.796 263.455 259.914 266.459C260.02 266.605 259.773 266.768 259.649 266.623C257.531 263.801 255.149 261.161 252.996 258.375C250.843 255.589 248.707 252.585 246.642 249.636C244.578 246.686 242.654 243.846 240.642 240.951C238.438 238.118 236.411 235.145 234.571 232.048C234.552 232.016 234.547 231.979 234.555 231.943C234.563 231.907 234.585 231.876 234.615 231.857C234.646 231.837 234.682 231.831 234.717 231.84C234.752 231.848 234.782 231.871 234.801 231.902Z" fill="#616161"/>
<path d="M241.719 383.438C245.602 379.943 249.767 376.72 253.861 373.479C257.955 370.238 262.085 366.979 266.215 363.775C274.492 357.348 282.751 350.866 291.116 344.567C295.704 341.089 300.328 337.684 305.111 334.462C305.323 334.334 305.552 334.68 305.358 334.844C297.487 341.781 289.122 348.099 280.862 354.508C272.603 360.916 264.256 367.252 255.873 373.625C251.284 377.066 246.714 380.616 241.931 383.766C241.737 383.966 241.507 383.584 241.719 383.438Z" fill="#616161"/>
<path d="M326.361 193.954L326.362 193.954C331.583 192.553 336.897 189.077 342.232 184.05C347.564 179.026 352.903 172.467 358.174 164.926C368.717 149.843 378.973 130.857 388.361 112.424C391.602 106.048 393.621 100.741 394.599 96.5655C395.581 92.377 395.505 89.3727 394.622 87.5669C394.184 86.6733 393.551 86.0755 392.744 85.7608C391.932 85.4441 390.919 85.4047 389.713 85.677C387.295 86.223 384.168 88.0071 380.504 91.1336C372.646 97.8767 364.497 105.034 356.971 111.644C352.945 115.18 349.097 118.56 345.567 121.636C340.505 126.047 336.095 129.835 332.756 132.561C331.087 133.924 329.682 135.024 328.594 135.805C328.051 136.195 327.584 136.508 327.2 136.735C326.825 136.957 326.506 137.111 326.267 137.161C325.988 137.219 325.655 137.125 325.31 136.965C324.953 136.799 324.537 136.54 324.069 136.204C323.134 135.532 321.966 134.531 320.63 133.294C317.956 130.818 314.581 127.372 310.995 123.655C310.028 122.653 309.046 121.632 308.058 120.604C301.706 113.996 295.109 107.134 290.762 103.591C290.479 103.363 290.071 103.22 289.53 103.176C288.99 103.131 288.335 103.186 287.577 103.335C286.062 103.634 284.175 104.304 282.055 105.255C277.816 107.155 272.687 110.159 267.807 113.486C262.927 116.812 258.308 120.455 255.087 123.628C253.476 125.216 252.224 126.677 251.463 127.916C251.083 128.535 250.832 129.088 250.716 129.566C250.6 130.043 250.624 130.427 250.767 130.728L250.767 130.729C252.765 134.987 257.243 141.412 263.164 148.58C269.081 155.742 276.427 163.63 284.147 170.812C291.869 177.995 299.958 184.465 307.363 188.796C311.065 190.961 314.588 192.588 317.804 193.504C321.021 194.421 323.913 194.621 326.361 193.954Z" fill="white" stroke="black" stroke-width="0.5"/>
<path d="M284.037 43.4959L298.491 95.6953C298.683 95.9784 298.793 96.312 298.808 96.6572C298.823 97.0023 298.743 97.3447 298.576 97.6445C298.409 97.9442 298.164 98.1889 297.867 98.3499C297.571 98.5109 297.236 98.5816 296.903 98.5538L270.589 99.4095C269.783 99.3713 269.003 99.0978 268.341 98.6209C267.678 98.1439 267.161 97.4831 266.848 96.7149L252.394 44.5155C251.794 42.9861 252.518 41.7116 253.983 41.6752L280.331 40.8376C281.128 40.8773 281.899 41.1476 282.554 41.6177C283.21 42.0878 283.724 42.7387 284.037 43.4959Z" fill="#A6A6A6"/>
<path d="M280.915 43.5871L295.369 95.7865C295.951 97.3159 295.245 98.5904 293.781 98.645L267.45 99.5007C266.646 99.4591 265.87 99.1841 265.211 98.7073C264.552 98.2306 264.038 97.5715 263.726 96.8061L249.272 44.6067C248.672 43.0773 249.396 41.8028 250.861 41.7664L277.174 40.9106C277.979 40.9473 278.757 41.2181 279.419 41.6916C280.081 42.1652 280.6 42.8223 280.915 43.5871Z" fill="#DBDBDB"/>
<path d="M273.767 46.2272C273.762 46.5444 273.821 46.8591 273.94 47.1517C274.058 47.4444 274.234 47.7087 274.456 47.9284C274.678 48.148 274.941 48.3182 275.229 48.4283C275.517 48.5385 275.825 48.5864 276.132 48.5688C276.439 48.5513 276.739 48.4688 277.013 48.3265C277.288 48.1842 277.532 47.985 277.729 47.7415C277.926 47.498 278.072 47.2152 278.158 46.9109C278.245 46.6065 278.27 46.287 278.232 45.9723C278.236 45.6552 278.177 45.3405 278.059 45.0478C277.94 44.7552 277.764 44.4908 277.542 44.2712C277.321 44.0516 277.057 43.8814 276.769 43.7712C276.481 43.661 276.174 43.6132 275.867 43.6307C275.56 43.6483 275.26 43.7307 274.985 43.8731C274.71 44.0154 274.467 44.2145 274.27 44.4581C274.073 44.7016 273.926 44.9843 273.84 45.2887C273.753 45.593 273.728 45.9125 273.767 46.2272Z" fill="#616161"/>
<path d="M237.484 92.3631C237.742 94.8251 238.034 97.6101 238.513 100.921L256.316 92.9178C256.018 89.2873 254.186 82.8669 250.683 76.4546C247.125 69.9409 241.863 63.4708 234.778 59.9426C232.617 58.8707 230.88 58.515 229.581 58.6722C228.295 58.8276 227.428 59.4843 226.967 60.4853C226.501 61.5003 226.441 62.8989 226.853 64.5404C227.264 66.1781 228.14 68.0364 229.515 69.9507C233.767 75.8626 235.478 79.9001 236.4 84.3705C236.86 86.5986 237.122 88.9305 237.408 91.644C237.433 91.8807 237.458 92.1203 237.484 92.3631Z" fill="white" stroke="black" stroke-width="0.5"/>
<path d="M257.314 140.691L291.792 110.396C292.221 104.747 291.348 100.436 290.369 97.5374C289.876 96.0793 289.356 94.9781 288.961 94.2434C288.764 93.876 288.597 93.6004 288.481 93.4175C288.423 93.3261 288.377 93.258 288.347 93.2132C288.331 93.1908 288.32 93.1742 288.312 93.1635L288.304 93.1519L288.302 93.1493L288.302 93.149L288.302 93.1489L257.314 140.691ZM257.314 140.691C257.213 140.567 257.067 140.386 256.882 140.153C256.501 139.671 255.95 138.965 255.278 138.067C253.932 136.272 252.097 133.713 250.14 130.657C246.223 124.541 241.828 116.453 239.879 108.527C237.189 97.5546 233.899 73.025 257.145 49.2243C258.512 47.828 260.266 46.5295 262.039 45.5643C263.816 44.5966 265.588 43.977 266.991 43.9123C267.691 43.8801 268.28 43.9868 268.732 44.2385C269.176 44.4862 269.506 44.8848 269.678 45.4807C270.03 46.699 269.72 48.7434 268.281 51.8953C266.322 56.1715 264.106 59.4094 262.157 62.2557C262.071 62.3819 261.985 62.5073 261.9 62.632C259.897 65.5616 258.193 68.1187 257.448 70.9992L257.347 71.3895L257.741 71.3065L257.69 71.0619M257.314 140.691L257.69 71.0619M257.69 71.0619L257.742 71.3065M257.69 71.0619L257.742 71.3065M278.363 73.8862L278.363 73.8862C282.935 79.0272 287.149 84.4942 290.976 90.2464L278.363 73.8862ZM278.363 73.8862C277.091 72.4557 275.184 71.5652 273.006 71.0438M278.363 73.8862L273.006 71.0438M273.006 71.0438C270.831 70.5231 268.412 70.3766 266.145 70.4151M273.006 71.0438L266.145 70.4151M266.145 70.4151C263.881 70.4536 261.778 70.6766 260.242 70.8901M266.145 70.4151L260.242 70.8901M260.242 70.8901C259.474 70.9969 258.848 71.1012 258.414 71.1787M260.242 70.8901L258.414 71.1787M258.414 71.1787C258.197 71.2175 258.028 71.2495 257.914 71.2719M258.414 71.1787L257.914 71.2719M257.914 71.2719C257.857 71.283 257.814 71.2917 257.785 71.2976M257.914 71.2719L257.785 71.2976M257.785 71.2976L257.752 71.3043M257.785 71.2976L257.752 71.3043M257.752 71.3043L257.744 71.306M257.752 71.3043L257.744 71.306M257.744 71.306L257.742 71.3064M257.744 71.306L257.742 71.3064M257.742 71.3064L257.742 71.3065M257.742 71.3064L257.742 71.3065" fill="white" stroke="black" stroke-width="0.5"/>
<path d="M238.682 97.6621C241.294 92.3456 247.012 81.1848 254.759 73.7199C263.371 65.4539 282.131 51.8715 287.99 58.5171C292.279 63.3783 285.555 69.1863 285.555 69.1863C285.555 69.1863 294.379 65.2719 297.414 70.5337C300.097 75.3403 294.644 79.5097 294.644 79.5097C294.644 79.5097 300.432 78.1077 302.162 83.2421C304.244 89.4143 291.749 91.3625 288.626 99.501C287.92 101.322 238.682 97.6621 238.682 97.6621Z" fill="white"/>
<path d="M261.732 84.5712C267.889 77.0621 276.121 71.6696 285.327 69.1135C285.574 69.1135 285.733 69.2227 285.539 69.3138C277.048 73.409 269.076 78.5637 261.802 84.6622C261.802 84.6622 261.696 84.6259 261.732 84.5712Z" fill="#0B0B0B"/>
<path d="M270.079 93.2924C273.273 89.651 283.933 81.4032 294.539 79.3276C294.768 79.3276 294.927 79.4369 294.715 79.5279C286.049 83.1811 277.808 87.8289 270.149 93.3834C270.149 93.3834 270.044 93.347 270.079 93.2924Z" fill="#0B0B0B"/>
<path d="M303.894 110.115L264.451 153.211C264.451 153.211 306.047 201.332 325.583 196.307C345.12 191.282 382.057 136.715 393.899 102.086C402.105 78.089 389.222 81.9671 375.633 93.7106C362.044 105.454 326.572 134.622 325.019 134.203C323.466 133.784 303.894 110.115 303.894 110.115Z" fill="#C8C8C8"/>
<path opacity="0.1" d="M317.233 195.87C319.951 196.755 322.843 196.905 325.634 196.307C345.17 191.282 382.107 136.734 393.949 102.086C399.349 86.3004 395.573 82.5862 388.478 85.2809C367.195 117.853 338.87 161.513 317.233 195.87Z" fill="black"/>
<path d="M277.28 160.385C282.98 154.431 305.517 129.233 309.964 123.461C310.282 123.061 310.105 122.751 309.735 123.133C292.228 140.521 282.363 154.085 277.051 160.148C276.927 160.294 277.139 160.531 277.28 160.385Z" fill="#0B0B0B"/>
<path d="M344.766 229.208C344.766 229.208 474.108 253.605 474.778 252.877C475.449 252.148 460.536 107.822 416.646 83.4243C409.587 79.5644 392.874 77.2886 385.709 84.8263C365.273 106.274 343.071 227.259 344.766 229.208Z" fill="#C8C8C8"/>
<path d="M346.125 217.245L473.49 239.786C473.014 235.816 472.378 231.083 471.584 225.748L348.472 203.9C347.519 208.998 346.742 213.495 346.125 217.245Z" fill="#EBEBEB"/>
<path d="M349.83 196.926L470.436 218.283C470.066 215.916 469.66 213.495 469.219 211L351.224 190.117C350.73 192.411 350.271 194.705 349.83 196.926Z" fill="#EBEBEB"/>
<path d="M391.428 106.729C398.646 106.729 407.84 93.0005 410.417 83.0595C410.593 82.3858 408.229 76.3047 405.687 68.767C404.17 64.197 402.581 59.0627 401.469 54.2014L374.044 68.767C377.088 74.3472 379.459 80.2903 381.104 86.4642C381.259 87.1267 381.347 87.8039 381.368 88.4851C381.368 88.5762 381.368 88.6855 381.368 88.8129C381.739 92.8184 384.457 106.747 391.428 106.729Z" fill="white"/>
<path d="M374.026 68.9855C377.072 74.5645 379.443 80.508 381.085 86.6826C381.24 87.3452 381.329 88.0224 381.35 88.7036C381.342 88.8066 381.342 88.9101 381.35 89.0131C382.378 88.9291 383.394 88.7401 384.386 88.4487C401.239 83.8241 400.957 60.9744 400.551 54.8386L374.026 68.9855Z" fill="#0B0B0B"/>
<path d="M402.401 21.4352L402.4 21.4349C399.2 13.7418 392.086 8.85701 384.343 7.23186C376.598 5.60633 368.265 7.25028 362.637 12.5624C361.71 13.4463 360.828 14.8671 360.018 16.723C359.209 18.5753 358.478 20.8433 357.845 23.4047C356.579 28.5273 355.707 34.8046 355.373 41.2361C355.038 47.6677 355.241 54.245 356.12 59.9682C357.001 65.6999 358.554 70.5407 360.896 73.5297L360.897 73.5301C365.746 79.7476 372.547 82.1175 379.358 81.5233C386.176 80.9285 393.004 77.362 397.871 71.7004C399.521 69.7757 400.915 66.3384 402.002 62.0612C403.086 57.7939 403.857 52.7256 404.279 47.5706C404.702 42.4159 404.777 37.1808 404.472 32.5808C404.167 27.9747 403.483 24.0274 402.401 21.4352Z" fill="white" stroke="black" stroke-width="0.5"/>
<path d="M374.238 44.4429C374.238 44.3518 374.379 44.5521 374.379 44.6431C374.115 46.7916 374.168 49.2859 375.985 50.1052C375.985 50.1052 375.985 50.2509 375.985 50.2327C373.691 49.7411 373.656 46.4274 374.238 44.4429Z" fill="#0B0B0B"/>
<path d="M376.285 42.3858C379.655 42.3858 379.302 49.3773 376.179 49.3227C373.055 49.2681 373.461 42.3312 376.285 42.3858Z" fill="#0B0B0B"/>
<path d="M361.988 43.751C361.988 43.751 361.812 43.842 361.812 43.9331C361.812 46.0815 361.371 48.5394 359.447 49.1585V49.2859C361.776 49.0674 362.271 45.7902 361.988 43.751Z" fill="#0B0B0B"/>
<path d="M360.242 41.4024C356.906 40.9654 356.289 47.8841 359.377 48.2847C362.466 48.6852 363.03 41.7848 360.242 41.4024Z" fill="#0B0B0B"/>
<path d="M379.161 39.3447C378.29 39.0261 377.436 38.6615 376.602 38.2523C375.646 38.011 374.799 37.4391 374.202 36.6319C374.042 36.3374 373.986 35.9949 374.044 35.6628C374.102 35.3308 374.27 35.0297 374.519 34.8112C375.04 34.4635 375.641 34.2636 376.26 34.2316C376.88 34.1996 377.497 34.3367 378.049 34.6291C379.274 35.0545 380.3 35.9379 380.925 37.1053C381.066 37.3772 381.125 37.6858 381.097 37.9925C381.068 38.2992 380.952 38.5903 380.764 38.8294C380.575 39.0685 380.323 39.245 380.038 39.3366C379.752 39.4283 379.447 39.4311 379.161 39.3447Z" fill="#0B0B0B"/>
<path d="M357.826 37.7614C358.761 37.6522 359.591 37.3973 360.526 37.197C361.509 37.1282 362.444 36.7321 363.191 36.0682C363.391 35.8098 363.5 35.4887 363.5 35.1578C363.5 34.8269 363.391 34.5058 363.191 34.2475C362.736 33.7825 362.168 33.4539 361.546 33.2967C360.924 33.1396 360.273 33.1598 359.661 33.3553C358.396 33.5359 357.236 34.1826 356.396 35.176C356.181 35.4206 356.047 35.7291 356.012 36.0573C355.977 36.3855 356.044 36.7166 356.203 37.0034C356.361 37.2901 356.603 37.5178 356.895 37.654C357.187 37.7901 357.512 37.8277 357.826 37.7614Z" fill="#0B0B0B"/>
<path d="M373.162 57.2425C372.59 58.0645 371.859 58.7546 371.014 59.2687C370.169 59.7828 369.23 60.1097 368.256 60.2285C367.408 60.3567 366.545 60.3567 365.697 60.2285C365.381 60.1959 365.068 60.135 364.762 60.0464C364.651 60.0223 364.551 59.961 364.477 59.8721C364.404 59.7831 364.361 59.6715 364.356 59.5548L364.726 54.9667C364.126 55.2398 361.073 56.4596 361.197 55.5857C361.762 48.1311 363.063 40.7555 365.079 33.5734C365.085 33.5471 365.096 33.5223 365.111 33.5003C365.126 33.4783 365.145 33.4595 365.167 33.4452C365.189 33.4308 365.214 33.4211 365.24 33.4165C365.266 33.412 365.292 33.4127 365.318 33.4187C365.343 33.4247 365.367 33.4358 365.388 33.4513C365.41 33.4669 365.428 33.4867 365.442 33.5095C365.456 33.5323 365.465 33.5578 365.47 33.5844C365.474 33.611 365.473 33.6382 365.468 33.6645C364.973 40.5467 363.314 47.3015 362.714 54.2202C363.805 53.7668 364.951 53.4727 366.121 53.3462C366.244 53.3462 365.521 58.9722 365.538 59.0268C366.847 59.2314 368.182 59.1628 369.464 58.825C370.746 58.4872 371.95 57.8872 373.003 57.0604C373.127 56.9148 373.286 57.0787 373.162 57.2425Z" fill="#0B0B0B"/>
<path d="M366.366 59.8828C367.282 61.1309 368.499 62.1101 369.895 62.7231C370.67 63.0426 371.523 63.0999 372.331 62.8869C374.095 62.4317 374.095 60.7749 373.813 59.3548C373.636 58.5983 373.375 57.8652 373.037 57.1699C371.148 58.7809 368.812 59.7309 366.366 59.8828Z" fill="#0B0B0B"/>
<path d="M369.895 62.7409C370.67 63.0604 371.523 63.1177 372.331 62.9047C374.095 62.4495 374.095 60.7927 373.813 59.3726C372.888 59.3972 371.998 59.7431 371.287 60.3544C370.576 60.9656 370.086 61.8065 369.895 62.7409Z" fill="#FF9CBD"/>
<path d="M405.509 50.342C397.391 50.9974 393.156 41.0382 394.92 32.9907C394.92 32.9907 373.372 36.1041 372.208 18.2431C370.493 20.7126 368.263 22.7536 365.682 24.2157C363.101 25.6778 360.235 26.5237 357.295 26.6911L355.865 32.9725C353.642 32.3353 351.242 25.8536 356.624 20.7192C356.624 20.7192 356.924 11.816 363.26 6.40854C364.971 4.86158 367.078 3.85668 369.329 3.51436C371.579 3.17204 373.878 3.50684 375.949 4.4786C379.687 1.64906 384.344 0.428273 388.938 1.07388C391.335 1.45028 393.61 2.41375 395.572 3.88357C397.534 5.3534 399.126 7.28681 400.215 9.52191C400.215 9.52191 410.927 11.5429 412.798 19.3719C413.378 21.5797 413.499 23.8892 413.153 26.1487C412.806 28.4081 411.999 30.5662 410.786 32.4809C410.786 32.4809 413.504 35.5397 412.18 42.2399C411.333 46.5367 407.945 50.1417 405.509 50.342Z" fill="#0B0B0B"/>
<path d="M372.668 16.6406C372.526 18.0935 372.526 19.5574 372.668 21.0103C372.778 22.4461 373.05 23.8638 373.479 25.2343C374.328 27.9363 376.129 30.2107 378.527 31.6068C380.996 32.912 383.729 33.5982 386.504 33.6095C387.898 33.6095 389.31 33.6095 390.722 33.4639C392.133 33.3182 393.528 33.1179 394.939 32.9905C393.563 33.3364 392.169 33.646 390.775 33.9737C389.38 34.3014 387.933 34.2468 386.504 34.3924C383.576 34.535 380.661 33.9086 378.033 32.5717C375.447 31.0306 373.548 28.5089 372.738 25.5438C371.989 22.6295 371.965 19.5672 372.668 16.6406Z" fill="#0B0B0B"/>
<path d="M361.621 27.1094C363.974 26.2807 366.175 25.0498 368.133 23.468C369.088 22.6707 369.937 21.7462 370.656 20.7188C371.365 19.6613 371.957 18.5254 372.421 17.3323C372.311 18.6772 371.919 19.9815 371.274 21.1557C370.644 22.3581 369.786 23.417 368.75 24.2691C367.735 25.1184 366.598 25.8001 365.38 26.2901C364.179 26.775 362.909 27.0519 361.621 27.1094Z" fill="#0B0B0B"/>
<path d="M378.333 55.2945C380.029 55.2081 381.666 54.6327 383.061 53.6336C384.455 52.6346 385.549 51.252 386.22 49.643C386.89 48.0341 387.109 46.2634 386.852 44.5323C386.596 42.8012 385.873 41.1791 384.767 39.8505C383.662 38.5219 382.216 37.5401 380.597 37.0168C378.977 36.4934 377.247 36.4495 375.604 36.89C373.961 37.3305 372.471 38.2378 371.303 39.5087C370.135 40.7795 369.336 42.363 368.997 44.079C368.528 46.5067 369.006 49.0274 370.327 51.0935C371.649 53.1595 373.708 54.6038 376.057 55.1124C376.805 55.2732 377.57 55.3344 378.333 55.2945ZM377.504 37.834C378.161 37.798 378.82 37.8531 379.463 37.9979C381.413 38.4197 383.135 39.5925 384.277 41.2775C385.419 42.9626 385.895 45.0332 385.61 47.068C385.324 49.1029 384.298 50.949 382.739 52.2307C381.181 53.5124 379.208 54.1334 377.222 53.9672C375.235 53.8011 373.385 52.8603 372.047 51.3363C370.709 49.8123 369.984 47.8197 370.02 45.764C370.056 43.7083 370.85 41.7439 372.24 40.2707C373.631 38.7975 375.513 37.9262 377.504 37.834Z" fill="#C8C8C8"/>
<path d="M357.561 53.71C361.091 53.528 364.002 49.7045 364.32 44.8432C364.53 42.5156 364.01 40.1799 362.838 38.1795C362.391 37.289 361.73 36.5321 360.917 35.9815C360.105 35.431 359.169 35.1053 358.199 35.0358C357.23 34.9663 356.259 35.1553 355.381 35.5847C354.503 36.0141 353.746 36.6694 353.184 37.4876C351.785 39.3188 350.965 41.55 350.837 43.8783C350.502 49.0308 353.255 53.4369 356.961 53.71H357.561ZM357.667 36.2677H358.126C358.894 36.3612 359.63 36.643 360.272 37.0896C360.914 37.5362 361.442 38.1346 361.814 38.8349C362.838 40.6182 363.294 42.6875 363.12 44.7522C362.82 49.2129 360.102 52.6722 357.049 52.4537C353.996 52.2353 351.755 48.43 352.055 43.9693C352.153 41.9 352.874 39.914 354.12 38.2887C354.535 37.7039 355.066 37.2166 355.678 36.8589C356.289 36.5011 356.967 36.281 357.667 36.2131V36.2677Z" fill="#C8C8C8"/>
<path d="M369.227 45.171L370.074 44.2788C368.786 42.9861 365.715 41.1654 363.332 43.4413L364.162 44.3516C366.28 42.3125 369.103 45.0617 369.227 45.171Z" fill="#C8C8C8"/>
<path d="M407.608 50.6519L408.72 50.1421C408.491 49.6141 406.443 44.8985 403.761 44.243C401.078 43.5876 386.748 43.8607 386.113 43.8789V45.1351C391.921 44.9227 397.735 45.0321 403.531 45.4629C405.261 45.8999 407.061 49.341 407.608 50.6519Z" fill="#C8C8C8"/>
<path d="M397.851 49.778C397.851 49.778 403.869 38.8538 408.581 41.0569C413.293 43.2599 409.376 58.4627 404.293 60.9753C403.664 61.3549 402.967 61.5967 402.243 61.6854C401.52 61.7741 400.787 61.7078 400.089 61.4908C399.392 61.2737 398.745 60.9106 398.19 60.424C397.635 59.9375 397.183 59.338 396.863 58.663L397.851 49.778Z" fill="white"/>
<path d="M407.398 45.408C407.398 45.408 407.504 45.5172 407.398 45.5536C403.868 47.3743 402.209 51.1431 401.168 54.9302C401.347 54.5283 401.609 54.1715 401.936 53.8849C402.263 53.5984 402.646 53.3888 403.06 53.2709C403.473 53.153 403.907 53.1296 404.33 53.2024C404.753 53.2751 405.155 53.4423 405.509 53.6921C405.528 53.7035 405.543 53.7195 405.553 53.7386C405.564 53.7578 405.569 53.7794 405.569 53.8014C405.569 53.8234 405.564 53.845 405.553 53.8641C405.543 53.8833 405.528 53.8993 405.509 53.9106C404.842 53.7564 404.144 53.8188 403.512 54.0893C402.881 54.3598 402.345 54.8252 401.98 55.4218C401.38 56.4345 400.883 57.5083 400.497 58.6262C400.356 58.9721 399.756 58.8447 399.844 58.4442V58.3531C399.28 53.5101 402.35 46.3729 407.398 45.408Z" fill="#0B0B0B"/>
<path d="M381.032 92.3459H381.12C381.42 98.427 382.497 112.374 391.974 110.553C395.721 109.477 399.098 107.331 401.715 104.363C406.822 98.8019 411.087 92.4801 414.369 85.6094C414.457 85.4455 414.669 85.6093 414.616 85.755C413.474 89.311 411.928 92.7152 410.01 95.8963C407.877 99.5787 405.264 102.942 402.245 105.892C399.368 108.623 395.892 111.354 391.833 112.046C390.093 112.351 388.304 112.036 386.761 111.153C385.218 110.269 384.013 108.87 383.344 107.185C381.457 102.494 380.665 97.4107 381.032 92.3459Z" fill="#0B0B0B"/>
<path d="M431.153 94.8766C451.342 113.084 503.104 185.001 490.397 200.386C477.691 215.771 397.798 205.102 374.838 196.599C367.991 194.068 388.709 149.552 396.263 147.786C402.581 146.293 436.694 158.328 437.453 156.289C438.212 154.25 431.559 138.373 420.864 109.934C408.528 77.1611 422.223 86.8109 431.153 94.8766Z" fill="white"/>
<path d="M362.553 137.59C346.476 136.953 342.258 139.411 329.022 131.363C320.304 126.138 313.315 129.634 318.892 138.81C328.016 153.794 348.593 159.111 356.235 158.838L362.553 137.59Z" fill="white"/>
<path d="M338.809 185.311C344.719 189.761 350.923 193.779 357.375 197.336C358.222 196.305 359.009 195.224 359.732 194.097L359.864 193.891L360.073 194.019L360.073 194.019L360.073 194.019L360.076 194.021L360.089 194.029C360.101 194.036 360.12 194.047 360.145 194.061C360.196 194.09 360.272 194.132 360.374 194.186C360.578 194.293 360.885 194.445 361.291 194.62C362.102 194.97 363.31 195.415 364.886 195.787C368.017 196.526 372.606 196.978 378.437 195.829L405.822 149.086C405.683 149.025 405.488 148.941 405.241 148.836C404.695 148.603 403.896 148.267 402.883 147.857C400.857 147.037 397.979 145.918 394.569 144.722C387.745 142.33 378.802 139.637 370.302 138.42C358.544 136.752 332.586 136.039 310.532 164.689L310.531 164.69C309.224 166.375 308.073 168.48 307.277 170.565C306.478 172.655 306.045 174.702 306.151 176.275C306.204 177.06 306.39 177.708 306.714 178.186C307.032 178.656 307.494 178.974 308.138 179.092C308.79 179.212 309.641 179.128 310.727 178.76C311.811 178.392 313.115 177.746 314.664 176.761C318.856 174.089 321.955 171.256 324.683 168.762C324.813 168.643 324.943 168.525 325.071 168.407C327.886 165.837 330.354 163.642 333.271 162.466L333.649 162.313L333.613 162.719L333.6 162.718C333.613 162.72 333.613 162.72 333.613 162.72L333.613 162.72L333.613 162.722L333.612 162.731L333.609 162.769C333.606 162.802 333.603 162.851 333.598 162.916C333.588 163.045 333.575 163.236 333.56 163.481C333.531 163.972 333.498 164.678 333.478 165.543C333.44 167.273 333.46 169.632 333.693 172.149C333.925 174.668 334.371 177.337 335.179 179.691C335.989 182.049 337.154 184.066 338.809 185.311L338.809 185.311Z" fill="white" stroke="black" stroke-width="0.5"/>
<path d="M358.812 138.446C353.517 141.978 342.646 149.661 335.869 159.147C328.281 169.689 316.456 192.12 324.01 197.819C329.587 202.006 334.846 193.85 334.846 193.85C334.846 193.85 331.845 204.173 337.687 206.813C342.981 209.216 346.705 202.662 346.705 202.662C346.705 202.662 345.911 209.253 351.47 210.564C358.159 212.129 358.688 198.055 366.788 193.595C368.571 192.593 358.812 138.446 358.812 138.446Z" fill="white"/>
<path d="M347.96 165.483C340.877 173.22 336.248 183.001 334.689 193.521C334.689 193.795 334.847 193.958 334.918 193.722C338.179 183.822 342.588 174.364 348.048 165.556C348.048 165.556 347.995 165.483 347.96 165.483Z" fill="#0B0B0B"/>
<path d="M357.982 173.785C354.559 177.754 347.252 190.554 346.352 202.571C346.352 202.844 346.529 203.008 346.599 202.753C349.359 192.701 353.207 183.003 358.071 173.84C358.071 173.84 358.088 173.731 357.982 173.785Z" fill="#0B0B0B"/>
<path d="M333.384 162.606C328.372 164.718 325.266 167.667 321.207 171.254C319.224 173.05 317.144 174.728 314.977 176.279C312.983 177.681 310.053 179.775 307.635 178.1C307.06 177.58 306.629 176.911 306.387 176.162C306.145 175.414 306.101 174.612 306.259 173.84C306.685 171.613 307.447 169.468 308.518 167.485C308.518 167.485 308.429 167.34 308.394 167.485C307.339 169.292 306.469 171.209 305.8 173.202C305.399 174.574 305.399 176.037 305.8 177.408C306.841 180.267 310.247 180.303 312.541 179.229C313.907 178.554 315.202 177.736 316.406 176.789C317.589 175.915 318.736 174.968 319.936 174.022C322.23 172.055 324.401 169.961 326.66 167.959C328.899 166.07 331.257 164.336 333.719 162.77C333.74 162.724 333.743 162.671 333.726 162.623C333.709 162.576 333.675 162.536 333.631 162.515C333.586 162.493 333.535 162.49 333.489 162.507C333.443 162.525 333.405 162.56 333.384 162.606Z" fill="#0B0B0B"/>
<path d="M406.181 148.969L386.486 205.793C386.486 205.793 486.409 218.283 493.133 199.894C499.857 181.505 455.225 116.706 436.183 98.4812C414.105 77.3429 412.34 85.4996 418.711 105.582C425.365 126.629 437.224 156.816 437.224 156.816L406.181 148.969Z" fill="#C8C8C8"/>
<path d="M468.318 168.177C463.46 165.426 458.417 163.034 453.229 161.022C448.071 159.072 442.78 157.52 437.399 156.379C434.346 155.669 431.275 155.123 428.187 154.559C428.187 154.559 428.081 154.686 428.187 154.704C433.563 155.908 438.866 157.434 444.07 159.274C449.282 161.034 454.441 162.897 459.547 164.864C462.459 165.993 465.301 167.231 468.16 168.505C468.202 168.527 468.251 168.53 468.295 168.515C468.34 168.5 468.377 168.467 468.398 168.423C468.419 168.38 468.422 168.329 468.408 168.283C468.393 168.237 468.361 168.199 468.318 168.177Z" fill="#0B0B0B"/>
<path d="M406.427 148.787C406.938 148.878 434.54 155.214 435.458 155.542C435.316 155.141 429.087 140.976 428.169 138.9L427.904 138.281C427.322 137.371 426.739 136.461 426.139 135.532C425.539 134.604 424.745 133.147 424.057 131.891L426.281 135.368C426.616 135.914 426.951 136.461 427.269 137.025C426.651 135.55 426.051 134.076 425.504 132.601C424.551 130.234 423.739 127.849 422.786 125.464H422.91C424.675 129.597 426.704 133.657 428.54 137.79C430.375 141.923 437.364 157.071 437.364 157.071C437.364 157.071 406.885 149.406 406.285 149.206C406.232 149.186 406.187 149.146 406.163 149.093C406.138 149.04 406.134 148.979 406.153 148.923C406.172 148.868 406.211 148.822 406.262 148.797C406.314 148.771 406.373 148.767 406.427 148.787Z" fill="#0B0B0B"/>
<path d="M408.07 184.346C410.241 178.01 412.341 171.601 414.741 165.393C416.1 161.842 417.441 158.292 418.818 154.741C418.818 154.614 419.1 154.741 419.065 154.741C417.141 161.187 415.2 167.65 412.976 174.004C410.752 180.359 408.635 186.749 406.358 192.976C405.052 196.545 403.652 200.077 402.158 203.573C402.158 203.573 402.017 203.573 402.034 203.573C403.746 197.091 405.899 190.737 408.07 184.346Z" fill="#0B0B0B"/>
<path d="M385.301 206.758C386.113 204.937 387.066 202.461 388.001 200.731C388.231 200.258 388.566 200.331 388.389 200.731C387.789 202.315 387.348 204.081 386.748 205.72C388.16 205.847 389.554 205.957 390.948 206.12L395.802 206.648C398.978 206.988 402.155 207.298 405.332 207.577C411.755 208.123 418.191 208.53 424.638 208.797C437.576 209.414 450.535 209.328 463.464 208.542C466.994 208.305 470.682 207.996 474.282 207.577C477.882 207.158 481.871 206.648 484.871 205.957C484.959 205.957 484.995 206.084 484.871 206.12C481.89 207.099 478.839 207.836 475.747 208.323C472.5 208.815 469.253 209.234 465.988 209.525C459.476 210.126 452.946 210.363 446.416 210.417C433.474 210.526 420.532 210.077 407.591 209.07C403.973 208.797 400.372 208.469 396.755 208.105L391.301 207.504C389.501 207.358 385.16 207.067 385.301 206.758Z" fill="#0B0B0B"/>
<path d="M256.56 205.502H382.372V211.31H256.56V205.502Z" fill="#C7C7C7"/>
<path d="M256.559 205.502V211.31H342.082L337.776 205.502H256.559Z" fill="#A6A6A6"/>
<path d="M324.789 211.31H214.683L198.747 131.163H308.853L324.789 211.31Z" fill="#A6A6A6"/>
<path d="M319.636 211.31H209.53L193.594 131.163H303.7L319.636 211.31Z" fill="#C7C7C7"/>
<path d="M246.697 168.25C246.574 170.039 247.041 171.818 248.021 173.298C249.001 174.779 250.438 175.874 252.097 176.407C255.238 177.099 257.868 174.587 257.991 170.781C258.083 168.995 257.592 167.229 256.597 165.764C255.602 164.299 254.161 163.219 252.503 162.697C249.45 161.951 246.802 164.482 246.697 168.25Z" fill="white"/>
<path d="M0.151932 377.685C1.7932 382.091 80.8033 480.919 86.133 482.739C88.1448 483.431 102.775 472.398 120.07 458.542C123.811 455.556 127.659 452.443 131.541 449.257C156.778 428.628 183.091 406.143 183.091 406.143L130.324 339.869L80.2385 384.804L69.2262 394.672C69.2262 394.672 22.6708 370.785 16.6175 369.401C10.5643 368.017 -1.48933 373.279 0.151932 377.685Z" fill="white"/>
<path d="M0.153976 377.685C1.79524 382.091 80.8053 480.919 86.135 482.74C88.5881 483.559 109.677 467.118 131.543 449.257L80.3641 384.804L69.3518 394.672C69.3518 394.672 22.6729 370.785 16.6196 369.401C10.5663 368.017 -1.48729 373.279 0.153976 377.685Z" fill="#EBEBEB"/>
<path d="M0.153862 377.685C1.79512 382.091 80.8052 480.919 86.1349 482.74C88.1468 483.431 102.777 472.398 120.072 458.543L69.3164 394.672C69.3164 394.672 22.6727 370.785 16.6195 369.401C10.5662 368.017 -1.4874 373.279 0.153862 377.685Z" fill="#C8C8C8"/>
<path d="M5.13078 375.847C18.7727 392.069 72.2814 458.871 84.5468 475.985C84.635 476.131 84.5468 476.204 84.4409 475.985C70.5872 460.2 17.5727 392.943 4.8308 375.974C4.58372 375.701 4.83077 375.501 5.13078 375.847Z" fill="#0B0B0B"/>
<path d="M25.1412 372.879C26.6602 374.683 27.8004 376.792 28.4899 379.073C29.1794 381.355 29.4033 383.759 29.1473 386.134C28.6953 390.38 26.6877 394.288 23.5352 397.058C23.4293 397.058 23.2881 396.949 23.3764 396.858C26.097 393.581 27.7196 389.487 28.0026 385.183C28.2856 380.878 27.2139 376.595 24.9471 372.97C24.8412 372.915 25.0353 372.752 25.1412 372.879Z" fill="#0B0B0B"/>
<path d="M62.5726 389.611C67.9729 396.165 71.8378 405.778 69.8789 414.372C69.8789 414.7 69.3495 414.591 69.2965 414.372C67.6017 406.068 65.0517 397.975 61.6902 390.23C61.6106 390.109 61.5808 389.96 61.6073 389.817C61.6338 389.674 61.7144 389.547 61.8314 389.465C61.9484 389.383 62.0922 389.352 62.2312 389.379C62.3702 389.407 62.493 389.49 62.5726 389.611Z" fill="#0B0B0B"/>
<path d="M56.5557 386.133C61.9384 392.688 65.8209 402.301 63.862 410.895C63.862 411.222 63.3149 411.113 63.2619 410.895C61.5786 402.59 59.0344 394.496 55.6733 386.752C55.5938 386.631 55.5639 386.483 55.5904 386.34C55.6169 386.196 55.6975 386.069 55.8145 385.987C55.9315 385.905 56.0753 385.875 56.2143 385.902C56.3533 385.929 56.4762 386.012 56.5557 386.133Z" fill="#0B0B0B"/>
<path d="M50.519 382.656C55.9193 389.21 59.7842 398.824 57.8253 407.417C57.8253 407.763 57.2958 407.636 57.2429 407.417C55.5508 399.113 53.0008 391.019 49.6366 383.275C49.557 383.154 49.5272 383.006 49.5537 382.862C49.5801 382.719 49.6607 382.592 49.7778 382.51C49.8948 382.428 50.0386 382.397 50.1776 382.425C50.3166 382.452 50.4394 382.535 50.519 382.656Z" fill="#0B0B0B"/>
<path d="M44.5021 379.178C49.8847 385.733 53.7673 395.364 51.8084 403.958C51.7201 404.286 51.2613 404.177 51.2084 403.958C49.5196 395.655 46.9756 387.561 43.6197 379.816C43.5378 379.695 43.5057 379.546 43.5306 379.4C43.5554 379.255 43.6351 379.126 43.7521 379.042C43.8691 378.957 44.0138 378.924 44.1545 378.95C44.2952 378.975 44.4202 379.058 44.5021 379.178Z" fill="#0B0B0B"/>
<path d="M96.4576 458.798C102.387 466.244 91.1632 475.766 85.2158 468.283C79.2684 460.8 90.5102 451.333 96.4576 458.798Z" fill="white"/>
<path d="M74.0094 367.835C79.3038 368.91 80.1333 375.373 78.9862 379.834C76.8738 387.444 72.8637 394.35 67.3561 399.861C67.2326 399.989 67.0914 399.861 67.0032 399.861C66.8622 399.939 66.7055 399.98 66.5459 399.983C66.3862 399.985 66.2284 399.949 66.0853 399.876C65.9421 399.803 65.8179 399.696 65.7228 399.563C65.6277 399.431 65.5645 399.277 65.5384 399.115C64.9207 391.705 63.3853 383.839 65.0089 376.465C65.9443 372.078 68.9091 366.834 74.0094 367.835ZM66.7914 387.608C67.0032 391.249 67.3914 394.891 67.4797 398.532C69.848 394.703 72.0273 390.753 74.0094 386.698C74.9512 384.721 75.7534 382.676 76.4096 380.58C77.3802 377.339 77.5566 366.251 70.0209 371.477C65.9443 374.463 66.5973 383.238 66.7914 387.608Z" fill="#0B0B0B"/>
<path d="M78.1381 418.341C72.6672 413.298 69.5082 405.997 65.7845 399.588C65.3962 398.933 65.961 398.241 66.561 398.095C66.5583 398.061 66.5629 398.026 66.5744 397.994C66.5859 397.962 66.604 397.933 66.6275 397.909C66.651 397.884 66.6793 397.866 66.7105 397.854C66.7416 397.842 66.775 397.837 66.8081 397.84C74.3921 399.021 81.5427 402.235 87.5445 407.162C91.0741 410.093 94.0213 415.81 90.2446 419.907C86.468 424.004 81.35 421.291 78.1381 418.341ZM85.0032 419.233C94.1095 419.033 87.721 410.13 85.1091 408.054C83.3871 406.754 81.583 405.574 79.7088 404.522C75.815 402.4 71.8151 400.491 67.7258 398.805C69.72 401.827 71.4495 405.014 73.3202 408.109C75.6145 411.805 79.9912 419.343 85.0032 419.233Z" fill="#0B0B0B"/>
<path d="M82.9057 374.681L141.55 446.38L318.418 316.455L335.854 303.71C335.854 303.71 340.867 307.114 348.402 311.284C358.867 317.092 374.204 324.411 387.704 326.286C410.364 329.345 444.46 328.581 463.22 302.035C479.103 279.677 473.615 250.855 473.615 250.855L448.643 240.131C448.643 240.131 389.275 190.353 351.191 189.315C335.025 188.842 311.624 201.787 289.987 215.26C268.351 228.733 82.9057 374.681 82.9057 374.681Z" fill="#0B0B0B"/>
<path d="M335.853 303.637C335.853 303.637 340.865 307.042 348.401 311.211C361.443 294.697 389.115 264.656 389.962 263.582L335.853 303.637Z" fill="#616161"/>
<path d="M426.915 223.545C430.445 226.021 433.974 228.643 437.38 231.192C440.787 233.741 444.44 236.035 447.634 238.766C450.828 241.497 454.128 244.519 457.27 247.523C458.788 248.962 460.288 250.418 461.752 251.929C463.293 253.376 464.727 254.94 466.041 256.609C466.147 256.772 465.935 256.955 465.776 256.863C464.113 255.673 462.527 254.371 461.029 252.967L456.07 248.725C452.875 245.994 449.628 243.263 446.434 240.605C443.24 237.946 440.345 234.906 437.204 232.138C434.063 229.371 430.339 226.458 426.809 223.745C426.809 223.618 426.809 223.49 426.915 223.545Z" fill="#616161"/>
<path d="M101.012 367.78C104.542 371.64 107.859 375.791 111.177 379.87C114.495 383.948 117.813 388.063 121.095 392.196C127.678 400.462 134.296 408.691 140.773 417.048C144.303 421.637 147.832 426.261 151.132 431.049C151.274 431.25 150.938 431.505 150.779 431.323C143.72 423.494 137.243 415.155 130.696 406.889C124.149 398.623 117.566 390.32 111.124 381.963C107.595 377.375 103.959 372.86 100.712 368.017C100.571 367.835 100.871 367.58 101.012 367.78Z" fill="#616161"/>
<path d="M233.955 378.286C242.938 370.803 263.374 356.165 272.692 349.155C282.01 342.145 291.223 335.154 300.629 328.363C303.329 326.415 306.065 324.503 308.782 322.591C311.5 320.679 314.342 318.95 316.989 316.911C317.148 316.801 317.289 317.074 317.148 317.184C314.695 319.004 312.4 321.116 310 323.028C307.6 324.94 305.429 326.669 303.117 328.49C298.6 332.022 294.046 335.482 289.493 338.959C280.281 346.023 270.98 352.979 261.592 359.824C256.297 363.684 239.814 375.155 234.361 378.832C234.043 379.069 233.655 378.505 233.955 378.286Z" fill="#616161"/>
<path d="M175.874 301.362C184.169 294.079 203.087 280.096 211.788 273.359C220.488 266.623 229.436 259.686 238.26 252.913L264.45 232.849C272.956 226.349 281.409 219.74 290.392 213.968C295.316 210.8 300.363 207.869 305.552 205.229C310.585 202.481 315.84 200.19 321.258 198.383C321.417 198.383 321.506 198.565 321.364 198.656C316.935 201.278 312.276 203.499 307.775 206.048C303.275 208.597 298.951 211.183 294.681 213.95C285.768 219.685 277.35 226.185 268.897 232.612C251.337 245.976 233.813 259.395 216.129 272.668C206.246 279.95 186.534 295.262 176.245 302.072C175.945 302.126 175.574 301.617 175.874 301.362Z" fill="#616161"/>
</svg>
